<svg xmlns="http://www.w3.org/2000/svg" xmlns:xlink="http://www.w3.org/1999/xlink" viewBox="0 0 480 480" width="480" height="480" preserveAspectRatio="xMidYMid meet" style="width: 100%; height: 100%; transform: translate3d(0px, 0px, 0px); content-visibility: visible;"><defs><clipPath id="__lottie_element_19200"><rect width="480" height="480" x="0" y="0"></rect></clipPath></defs><g clip-path="url(#__lottie_element_19200)"><g transform="matrix(8,0,0,8,44.61000061035156,48)" opacity="1" style="display: block;"><g opacity="1" transform="matrix(1,0,0,1,6.765472888946533,23.641000747680664)"><path stroke-linecap="round" stroke-linejoin="round" fill-opacity="0" stroke="rgb(0,0,0)" stroke-opacity="1" stroke-width="2" d=" M5.815999984741211,-6.123000144958496 C5.815999984741211,-6.123000144958496 1.2239999771118164,0 1.2239999771118164,0 C1.2239999771118164,0 5.815999984741211,6.123000144958496 5.815999984741211,6.123000144958496"></path></g><g opacity="1" transform="matrix(1,0,0,1,41.16789627075195,23.641000747680664)"><path stroke-linecap="round" stroke-linejoin="round" fill-opacity="0" stroke="rgb(0,0,0)" stroke-opacity="1" stroke-width="2" d=" M-5.815999984741211,-6.123000144958496 C-5.815999984741211,-6.123000144958496 -1.2239999771118164,0 -1.2239999771118164,0 C-1.2239999771118164,0 -5.815999984741211,6.123000144958496 -5.815999984741211,6.123000144958496"></path></g><g opacity="1" transform="matrix(1,0,0,1,24.423999786376953,23.641000747680664)"><path stroke-linecap="round" stroke-linejoin="round" fill-opacity="0" stroke="rgb(0,0,0)" stroke-opacity="1" stroke-width="2" d=" M-6.888000011444092,10.71500015258789 C-6.888000011444092,10.71500015258789 6.888000011444092,-10.71500015258789 6.888000011444092,-10.71500015258789"></path></g></g><g transform="matrix(8,0,0,8,240,239.9969940185547)" opacity="1" style="display: block;"><g opacity="1" transform="matrix(1,0,0,1,0,0)"><path stroke-linecap="round" stroke-linejoin="round" fill-opacity="0" stroke="rgb(0,0,0)" stroke-opacity="1" stroke-width="2" d=" M0.3880000114440918,16.875 C8.510000228881836,16.875 22.25,16.875 22.25,16.875 C22.25,16.875 22.25,-18.125 22.25,-18.125 C22.25,-18.125 -23.375,-18.125 -23.375,-18.125 C-23.375,-18.125 -23.5,16.878999710083008 -23.5,16.878999710083008 C-23.5,16.878999710083008 -5.438000202178955,16.878999710083008 -5.438000202178955,16.878999710083008 M-5.438000202178955,16.875 C-5.438000202178955,16.875 -3.0199999809265137,16.875 0.3880000114440918,16.875"></path></g><g opacity="1" transform="matrix(1,0,0,1,0,0)"><path stroke-linecap="round" stroke-linejoin="miter" fill-opacity="0" stroke-miterlimit="4" stroke="rgb(0,0,0)" stroke-opacity="1" stroke-width="2" d=" M-23.375,-18.117000579833984 C-23.375,-18.117000579833984 -23.3439998626709,-20.687999725341797 -23.3439998626709,-21.141000747680664 C-23.406999588012695,-23.437999725341797 -22.687999725341797,-24.4060001373291 -20.625,-24.5049991607666 C-20.625,-24.437999725341797 19.5939998626709,-24.413999557495117 19.5939998626709,-24.562000274658203 C21.733999252319336,-24.577999114990234 22.437999725341797,-23.4689998626709 22.29599952697754,-21.0939998626709 C22.29599952697754,-20.312999725341797 22.25,-18.125 22.25,-18.125"></path></g><g opacity="1" transform="matrix(0.9999998211860657,0,0,0.9999998211860657,-0.000003814697265625,-0.000003814697265625)"><path stroke-linecap="round" stroke-linejoin="round" fill-opacity="0" stroke="rgb(0,0,0)" stroke-opacity="1" stroke-width="2" d=" M-19.5310001373291,-21.2189998626709 C-19.5310001373291,-21.2189998626709 -19.5310001373291,-21.2189998626709 -19.5310001373291,-21.2189998626709"></path></g><g opacity="1" transform="matrix(0.9999998211860657,0,0,0.9999998211860657,-0.000003814697265625,-0.000003814697265625)"><path stroke-linecap="round" stroke-linejoin="round" fill-opacity="0" stroke="rgb(0,0,0)" stroke-opacity="1" stroke-width="2" d=" M-16.729000091552734,-21.2189998626709 C-16.729000091552734,-21.2189998626709 -16.729000091552734,-21.2189998626709 -16.729000091552734,-21.2189998626709"></path></g><g opacity="1" transform="matrix(0.9999993443489075,0,0,0.9999993443489075,-0.0000095367431640625,-0.0000133514404296875)"><path stroke-linecap="round" stroke-linejoin="round" fill-opacity="0" stroke="rgb(0,0,0)" stroke-opacity="1" stroke-width="2" d=" M-14.149999618530273,-21.2189998626709 C-14.149999618530273,-21.2189998626709 -14.149999618530273,-21.2189998626709 -14.149999618530273,-21.2189998626709"></path></g></g></g></svg>