<svg version="1.1" id="Layer_1" xmlns="http://www.w3.org/2000/svg" xmlns:xlink="http://www.w3.org/1999/xlink" x="0px" y="0px" viewBox="0 0 500 500" style="width: 166px;" xml:space="preserve" data-imageid="profiling-7" imageName="Profiling" class="illustrations_image">
<style type="text/css">
	.st0_profiling-7{fill:#68E1FD;}
	.st1_profiling-7{fill:#093F68;}
	.st2_profiling-7{fill:#FFFFFF;}
	.st3_profiling-7{fill:#725858;}
	.st4_profiling-7{fill:#FFC9B0;}
	.st5_profiling-7{fill:#DFEAEF;}
	.st6_profiling-7{fill:#70CC40;}
</style>
<g id="paper_profiling-7">
	<rect x="187.3" y="109.2" class="st0_profiling-7 targetColor" width="251.3" height="305.3" style="fill: rgb(0, 0, 0);"/>
	<path class="st1_profiling-7" d="M438.7,416.3H187.3c-1,0-1.9-0.9-1.9-1.9V109.2c0-1,0.9-1.9,1.9-1.9h251.3c1,0,1.9,0.9,1.9,1.9v305.3&#10;&#9;&#9;C440.5,415.5,439.7,416.3,438.7,416.3C438.7,416.3,438.7,416.3,438.7,416.3z M189.2,412.6h247.6V111.1H189.2L189.2,412.6z"/>
</g>
<g id="profile_profiling-7">
	<rect x="217.8" y="85.9" class="st2_profiling-7" width="251.3" height="305.3"/>
	<path class="st1_profiling-7" d="M469.1,393H217.8c-1,0-1.9-0.9-1.9-1.9V85.9c0-1,0.9-1.9,1.9-1.9h251.3c1,0,1.9,0.9,1.9,1.9v305.3&#10;&#9;&#9;C470.9,392.2,470.1,393,469.1,393z M219.6,389.3h247.6V87.8H219.6V389.3z"/>
	<rect x="242.4" y="115.6" class="st0_profiling-7 targetColor" width="109.5" height="112.7" style="fill: rgb(0, 0, 0);"/>
	<path class="st1_profiling-7" d="M351.9,230.1H242.4c-1,0-1.9-0.9-1.9-1.9V115.6c0-1,0.8-1.9,1.8-1.9h109.5c1,0,1.9,0.9,1.9,1.9v112.7&#10;&#9;&#9;c0,1-0.7,1.8-1.7,1.8C352,230.1,351.9,230.1,351.9,230.1z M244.3,226.4h105.8v-109H244.3L244.3,226.4z"/>
	<path class="st2_profiling-7" d="M325.1,217.4v10.9h-55.8v-10.9c0.1-10.4,8.5-18.8,18.9-18.9h18c10.4,0,18.9,8.3,18.9,18.7&#10;&#9;&#9;C325.1,217.3,325.1,217.3,325.1,217.4L325.1,217.4z"/>
	<path class="st1_profiling-7" d="M325.1,230.1h-55.8c-1,0-1.9-0.9-1.9-1.9v-10.9c0-11.4,9.3-20.7,20.7-20.7h18c11.4,0,20.7,9.3,20.7,20.7v10.9&#10;&#9;&#9;c0.2,0.9-0.4,1.7-1.2,1.9C325.4,230.1,325.3,230.1,325.1,230.1z M271.3,226.4h52v-9c0-9.4-7.6-17-17-17h-18c-9.4,0-17,7.6-17,17&#10;&#9;&#9;V226.4z"/>
	<polygon class="st1_profiling-7" points="292.8,200.4 297.9,224.9 302.3,200.4 &#9;"/>
	<path class="st1_profiling-7" d="M297.9,226.8c-0.9,0-1.6-0.6-1.8-1.5l-5.1-24.5c-0.1-0.6,0-1.1,0.4-1.6c0.4-0.4,0.9-0.7,1.4-0.7h9.5&#10;&#9;&#9;c0.6,0,1.1,0.2,1.4,0.7c0.4,0.4,0.5,1,0.4,1.5l-4.3,24.5C299.6,226.1,298.8,226.7,297.9,226.8z M295.1,202.2l2.7,12.9l2.3-12.9&#10;&#9;&#9;H295.1z"/>
	<path class="st3_profiling-7" d="M294.9,121.7c1.2-0.2,2.3-0.3,3.5-0.3c5.4,0,11-0.1,16,2.3c10.2,5.1,16.7,15.5,16.8,26.9l-1.1,22.3h-65.3&#10;&#9;&#9;c-0.4-1.3,0.2-2.9,0.3-4.2c0-1.5-0.2-2.9-0.6-4.3c-0.8-3.6-1.2-7.4-1.3-11.1c0-5.9,1.2-11.7,3.6-17c1.3-3.2,2.9-6.6,5.7-8.6&#10;&#9;&#9;s7.4-2.1,9.4,0.8C285.4,124.9,289.9,122.5,294.9,121.7z"/>
	<path class="st1_profiling-7" d="M330.1,174.8h-65.3c-0.8,0-1.6-0.5-1.8-1.3c-0.3-1.2-0.3-2.4,0-3.6c0.1-0.4,0.1-0.8,0.2-1.2c0-1-0.1-2-0.4-2.9&#10;&#9;&#9;c-0.1-0.3-0.1-0.6-0.2-1c-0.8-3.8-1.2-7.6-1.3-11.4c0-6.1,1.3-12.2,3.7-17.8c1.4-3.3,3.1-7.1,6.4-9.4c3-2.1,7.5-2.6,10.5-0.3&#10;&#9;&#9;c3.6-3.2,8-5.4,12.8-6.1l0,0c1.3-0.2,2.5-0.3,3.8-0.3h1c5.3,0,10.8,0,15.8,2.5c10.9,5.4,17.8,16.4,17.9,28.6c0,0.1,0,0.1-1.1,22.4&#10;&#9;&#9;C332,174,331.1,174.8,330.1,174.8z M266.6,171.1h61.7c0.3-5.2,1-20.4,1.1-20.6c-0.1-10.7-6.2-20.5-15.8-25.2&#10;&#9;&#9;c-4.3-2.1-9.1-2.1-14.2-2.1h-1c-1.1,0-2.2,0.1-3.2,0.2l0,0c-4.6,0.7-8.8,2.9-12,6.3c-0.7,0.7-1.8,0.8-2.5,0.2c0,0-0.1,0-0.1-0.1&#10;&#9;&#9;l-0.3-0.3c-1.4-2-4.8-1.8-6.8-0.3c-2.5,1.7-3.9,4.8-5.1,7.8c-2.3,5.1-3.4,10.7-3.4,16.3c0.1,3.6,0.5,7.2,1.3,10.7&#10;&#9;&#9;c0.1,0.3,0.1,0.6,0.2,0.9c0.3,1.3,0.5,2.6,0.5,3.9c0,0.6-0.1,1.1-0.2,1.7C266.7,170.8,266.6,170.9,266.6,171.1z"/>
	<path class="st4_profiling-7" d="M292.8,194.9h9.5v7.3c0,1.2-1,2.2-2.2,2.2H295c-1.2,0-2.2-1-2.2-2.2V194.9z"/>
	<path class="st1_profiling-7" d="M298.2,206.3h-1.4c-3.3,0-5.9-2.6-5.9-5.9v-5.5c0-1,0.8-1.9,1.8-1.9h9.5c1,0,1.9,0.8,1.9,1.8l0,0v5.5&#10;&#9;&#9;C304.1,203.6,301.5,206.3,298.2,206.3C298.2,206.3,298.2,206.3,298.2,206.3L298.2,206.3z M294.6,196.8v3.6c0,1.2,1,2.2,2.2,2.2h1.4&#10;&#9;&#9;c1.2,0,2.2-1,2.2-2.2v-3.6H294.6z"/>
	<ellipse class="st4_profiling-7" cx="272" cy="170.3" rx="8.7" ry="7.9"/>
	<path class="st1_profiling-7" d="M272,180.1c-5.8,0-10.5-4.4-10.5-9.8s4.7-9.8,10.5-9.8s10.5,4.4,10.5,9.8S277.8,180.1,272,180.1z M272,164.2&#10;&#9;&#9;c-3.8,0-6.8,2.7-6.8,6.1s3.1,6.1,6.8,6.1s6.8-2.7,6.8-6.1S275.7,164.2,272,164.2z"/>
	<ellipse class="st4_profiling-7" cx="322.6" cy="170.3" rx="8.7" ry="7.9"/>
	<path class="st1_profiling-7" d="M322.6,180.1c-5.8,0-10.5-4.4-10.5-9.8s4.7-9.8,10.5-9.8s10.5,4.4,10.5,9.8S328.4,180.1,322.6,180.1z&#10;&#9;&#9; M322.6,164.2c-3.8,0-6.8,2.7-6.8,6.1s3,6.1,6.8,6.1s6.8-2.7,6.8-6.1S326.3,164.2,322.6,164.2z"/>
	<path class="st4_profiling-7" d="M297.5,196.2L297.5,196.2c-15.4,0-27.8-12.4-27.8-27.8l0,0v-15c0,0,7-4,9.1-10.3c0,0,10.7,12.1,21,11.3&#10;&#9;&#9;c8.6-0.7,17.1-1.9,25.5-3.6v17.5c0.1,15.3-12.3,27.8-27.6,27.9C297.6,196.2,297.6,196.2,297.5,196.2L297.5,196.2z"/>
	<path class="st1_profiling-7" d="M297.5,198c-16.3,0-29.6-13.3-29.6-29.6c0,0,0,0,0,0v-15c0-0.7,0.3-1.3,0.9-1.6c0.1,0,6.4-3.7,8.2-9.3&#10;&#9;&#9;c0.3-1,1.4-1.5,2.4-1.2c0.3,0.1,0.6,0.3,0.8,0.5c0.1,0.1,10.2,11.4,19.4,10.7c8.5-0.7,16.9-1.9,25.3-3.5c1-0.2,2,0.4,2.2,1.4&#10;&#9;&#9;c0,0,0,0,0,0v17.9c0.1,16.3-13,29.6-29.3,29.7C297.7,198,297.6,198,297.5,198z M271.6,154.4v13.9c0,14.3,11.6,25.9,25.9,25.9&#10;&#9;&#9;c14.3,0,25.9-11.6,25.9-25.9v-15.1c-7.8,1.5-15.6,2.5-23.5,3.2c-8.4,0.7-16.8-6.3-20.6-9.9C277.4,149.7,274.7,152.4,271.6,154.4&#10;&#9;&#9;L271.6,154.4z"/>
	<path class="st1_profiling-7" d="M297.4,174.8c-0.9,0-1.8-0.1-2.7-0.2c-1-0.1-1.8-1-1.7-2c0.1-1,1-1.8,2-1.7c0.1,0,0.1,0,0.2,0h0.2&#10;&#9;&#9;c0.8,0.1,1.7,0.2,2.5,0.2c-0.5-1.6-1.1-3.2-1.9-4.7c-0.4-0.9,0-2,0.9-2.5c0.9-0.4,1.9-0.1,2.4,0.8c2.1,4.1,2.9,7,2.2,8.5&#10;&#9;&#9;c-0.3,0.7-0.9,1.2-1.6,1.4C299.1,174.8,298.2,174.9,297.4,174.8z"/>
	<path class="st1_profiling-7" d="M281.6,230.1c-1,0-1.9-0.9-1.9-1.9l0,0v-9.3c0-1,0.8-1.9,1.8-1.9c0.9,0,1.7,0.7,1.9,1.6v9.6&#10;&#9;&#9;C283.4,229.2,282.7,230.1,281.6,230.1C281.6,230.1,281.6,230.1,281.6,230.1z"/>
	<path class="st1_profiling-7" d="M313,230.1c-1,0-1.9-0.9-1.9-1.9l0,0v-9.3c0-1,0.8-1.9,1.8-1.9c0.9,0,1.7,0.7,1.9,1.6v9.6&#10;&#9;&#9;c0.1,1-0.6,1.8-1.6,1.9C313.1,230.1,313.1,230.1,313,230.1z"/>
	<path class="st5_profiling-7" d="M436,137.4h-60.1c-1,0-1.9-0.9-1.9-1.9c0-1,0.8-1.9,1.8-1.9c0,0,0.1,0,0.1,0H436c1,0,1.9,0.9,1.9,1.9&#10;&#9;&#9;c0,1-0.8,1.9-1.8,1.9C436.1,137.4,436,137.4,436,137.4z"/>
	<path class="st5_profiling-7" d="M436,164.2h-60.1c-1,0-1.9-0.9-1.9-1.9c0-1,0.8-1.9,1.8-1.9c0,0,0.1,0,0.1,0H436c1,0,1.9,0.9,1.9,1.9&#10;&#9;&#9;c0,1-0.8,1.9-1.8,1.9C436.1,164.2,436,164.2,436,164.2z"/>
	<path class="st5_profiling-7" d="M436,191h-60.1c-1,0-1.9-0.9-1.9-1.9c0-1,0.8-1.9,1.8-1.9c0,0,0.1,0,0.1,0H436c1,0,1.9,0.9,1.9,1.9&#10;&#9;&#9;c0,1-0.8,1.9-1.8,1.9C436.1,191,436,191,436,191z"/>
	<path class="st5_profiling-7" d="M415.1,217.8h-39.2c-1,0-1.9-0.8-1.9-1.8c0-0.9,0.7-1.7,1.6-1.9h39.5c1-0.1,2,0.6,2.1,1.6c0.1,1-0.6,2-1.6,2.1&#10;&#9;&#9;c-0.1,0-0.2,0-0.2,0H415.1z"/>
	<path class="st0_profiling-7 targetColor" d="M256.1,255.1c-7.3,0-13.3,6-13.3,13.3c0,7.3,13.3,24.2,13.3,24.2s13.3-16.8,13.3-24.2&#10;&#9;&#9;C269.4,261.1,263.5,255.1,256.1,255.1C256.1,255.1,256.1,255.1,256.1,255.1L256.1,255.1z M256.1,273.6c-3.3,0-5.9-2.6-5.9-5.9&#10;&#9;&#9;s2.6-5.9,5.9-5.9c3.3,0,5.9,2.6,5.9,5.9l0,0c0,3.2-2.6,5.9-5.8,5.9C256.2,273.6,256.1,273.6,256.1,273.6z" style="fill: rgb(0, 0, 0);"/>
	<path class="st1_profiling-7" d="M256.1,294.4L256.1,294.4c-0.6,0-1.1-0.3-1.4-0.7c-1.4-1.8-13.7-17.6-13.7-25.3c-0.4-8.4,6-15.5,14.4-16&#10;&#9;&#9;c8.4-0.4,15.5,6,16,14.4c0,0.3,0,0.5,0,0.8v0.8c0,7.8-12.3,23.5-13.7,25.3C257.3,294.1,256.7,294.3,256.1,294.4z M256.1,256.9&#10;&#9;&#9;c-6.3,0-11.4,5.1-11.4,11.4c0,0,0,0,0,0.1c0,4.9,7.3,15.6,11.4,21.1c4.2-5.5,11.4-16.3,11.4-21.1&#10;&#9;&#9;C267.5,262.1,262.4,256.9,256.1,256.9z M256.1,275.5c-4.3,0-7.7-3.5-7.7-7.8s3.5-7.7,7.8-7.7c4.3,0,7.7,3.5,7.7,7.8l0,0&#10;&#9;&#9;C263.8,272.1,260.4,275.5,256.1,275.5z M256.1,263.7c-2.2,0-4,1.8-4,4s1.8,4,4,4s4-1.8,4-4S258.3,263.7,256.1,263.7z"/>
	<path class="st0_profiling-7 targetColor" d="M257.6,318.7l4.9,10l11,1.6c0.9,0.1,1.6,1,1.5,1.9c-0.1,0.4-0.2,0.7-0.5,1l-8,7.8l1.9,11&#10;&#9;&#9;c0.1,0.9-0.5,1.8-1.4,2c-0.4,0.1-0.8,0-1.1-0.2l-9.9-5.2l-9.8,5.1c-0.8,0.4-1.8,0.1-2.3-0.7c-0.2-0.3-0.2-0.7-0.2-1.1l1.9-11&#10;&#9;&#9;l-8-7.8c-0.7-0.6-0.7-1.6-0.1-2.3c0,0,0.1-0.1,0.1-0.1c0.2-0.3,0.6-0.5,1-0.5l11-1.6l4.9-10c0.4-0.8,1.4-1.2,2.2-0.8&#10;&#9;&#9;c0,0,0.1,0,0.1,0C257.1,318,257.4,318.3,257.6,318.7z" style="fill: rgb(0, 0, 0);"/>
	<path class="st1_profiling-7" d="M266.7,355.8c-0.6,0-1.2-0.1-1.7-0.4l-9-4.7l-9,4.7c-1.7,0.9-3.9,0.2-4.8-1.5c-0.4-0.7-0.5-1.5-0.4-2.3l1.7-10&#10;&#9;&#9;l-7.3-7.1c-1.4-1.4-1.4-3.6-0.1-5.1c0.6-0.6,1.3-0.9,2.1-1l10-1.5l4.5-9.1c0.6-1.2,1.8-2,3.2-2l0,0c1.4,0,2.6,0.8,3.2,2l4.5,9.1&#10;&#9;&#9;l10,1.5c1.9,0.3,3.3,2,3,3.9c0,0,0,0,0,0.1c-0.1,0.8-0.5,1.5-1,2.1l-7.3,7.1l1.7,10c0.3,1.9-1,3.8-2.9,4.1c0,0,0,0,0,0&#10;&#9;&#9;C267,355.8,266.8,355.8,266.7,355.8L266.7,355.8z M256.1,346.8c0.3,0,0.6,0.1,0.9,0.2l9.6,5l-1.8-10.7c-0.1-0.6,0.1-1.2,0.5-1.6&#10;&#9;&#9;l7.8-7.6l-10.7-1.6c-0.6-0.1-1.1-0.5-1.4-1l-4.8-9.8l-4.8,9.8c-0.3,0.5-0.8,0.9-1.4,1l-10.7,1.6l7.8,7.6c0.4,0.4,0.6,1,0.5,1.6&#10;&#9;&#9;l-1.8,10.7l9.6-5C255.5,346.8,255.8,346.8,256.1,346.8z M257.6,318.8l-1.7,0.8l0,0L257.6,318.8z"/>
	<path class="st1_profiling-7" d="M351.9,296.1c-1,0-1.9-0.9-1.9-1.9v-37c0-1,0.9-1.9,1.9-1.9c1,0,1.9,0.8,1.9,1.9v37&#10;&#9;&#9;C353.8,295.2,352.9,296.1,351.9,296.1z"/>
	<polygon class="st0_profiling-7 targetColor" points="385.2,278.6 351.9,278.6 351.9,260.6 385.2,260.6 378.2,269.6 &#9;" style="fill: rgb(0, 0, 0);"/>
	<path class="st1_profiling-7" d="M385.2,280.4h-33.3c-1,0-1.9-0.9-1.9-1.9v-18c0-1,0.9-1.9,1.9-1.9h33.3c1,0,1.9,0.9,1.9,1.9&#10;&#9;&#9;c0,0.4-0.1,0.8-0.4,1.1l-6.1,7.8l6.1,7.8c0.6,0.8,0.5,2-0.3,2.6C386.1,280.2,385.7,280.4,385.2,280.4L385.2,280.4z M353.7,276.7&#10;&#9;&#9;h27.7l-4.7-6c-0.5-0.7-0.5-1.6,0-2.3l4.7-6h-27.6L353.7,276.7z"/>
	<rect x="348.9" y="328.3" class="st0_profiling-7 targetColor" width="39.8" height="25.3" style="fill: rgb(0, 0, 0);"/>
	<path class="st1_profiling-7" d="M388.7,355.5h-39.8c-1,0-1.9-0.9-1.9-1.9v-25.3c0-1,0.9-1.9,1.9-1.9h39.8c1,0,1.9,0.9,1.9,1.9v25.3&#10;&#9;&#9;C390.6,354.6,389.7,355.5,388.7,355.5L388.7,355.5z M350.8,351.8h36.1v-21.6h-36.1L350.8,351.8z"/>
	<path class="st0_profiling-7 targetColor" d="M350,328.3h38.7v6c0,2.3-1.9,4.2-4.2,4.2h-30.4c-2.3,0-4.2-1.9-4.2-4.2v-6H350z" style="fill: rgb(0, 0, 0);"/>
	<path class="st1_profiling-7" d="M380.9,340.3h-23.2c-5.3,0-9.6-4.3-9.6-9.6l0,0v-2.4c0-1,0.9-1.9,1.9-1.9h38.7c1,0,1.9,0.9,1.9,1.9v2.4&#10;&#9;&#9;C390.5,336,386.2,340.3,380.9,340.3z M351.8,330.2v0.5c0,3.2,2.6,5.9,5.8,5.9c0,0,0.1,0,0.1,0h23.2c3.2,0,5.9-2.6,5.9-5.8&#10;&#9;&#9;c0,0,0-0.1,0-0.1v-0.5H351.8z"/>
	<path class="st1_profiling-7" d="M377.6,330.2h-15.4c-1,0-1.9-0.9-1.9-1.9v-3.4c0-3.3,2.6-5.9,5.9-5.9h7.4c3.3,0,5.9,2.6,5.9,5.9v3.4&#10;&#9;&#9;C379.4,329.3,378.6,330.1,377.6,330.2z M364.1,326.5h11.7v-1.6c0-1.2-1-2.2-2.2-2.2h-7.4c-1.2,0-2.2,1-2.2,2.2l0,0L364.1,326.5z"/>
	<path class="st5_profiling-7" d="M322.6,269.6h-34.1c-1,0-1.9-0.8-1.9-1.8c0-0.9,0.7-1.7,1.6-1.9h34.4c1-0.1,2,0.6,2.1,1.6c0.1,1-0.6,2-1.6,2.1&#10;&#9;&#9;c-0.1,0-0.2,0-0.2,0H322.6z"/>
	<path class="st5_profiling-7" d="M440.1,269.6H406c-1,0-1.9-0.8-1.9-1.8c0-0.9,0.7-1.7,1.6-1.9h34.4c1-0.1,2,0.6,2.1,1.6c0.1,1-0.6,2-1.6,2.1&#10;&#9;&#9;c-0.1,0-0.2,0-0.2,0H440.1z"/>
	<path class="st5_profiling-7" d="M313,283.4h-24.6c-1,0-1.9-0.9-1.9-1.9c0-1,0.8-1.9,1.9-1.9H313c1,0,1.9,0.9,1.9,1.9&#10;&#9;&#9;C314.8,282.5,314,283.3,313,283.4z"/>
	<path class="st5_profiling-7" d="M427.4,283.4H406c-1,0-1.9-0.9-1.9-1.9c0-1,0.8-1.9,1.9-1.9h21.4c1,0,1.9,0.9,1.9,1.9&#10;&#9;&#9;C429.2,282.5,428.4,283.3,427.4,283.4z"/>
	<path class="st5_profiling-7" d="M322.6,333.5h-34.1c-1,0-1.9-0.8-1.9-1.9c0-1,0.8-1.9,1.9-1.9c0,0,0,0,0,0h34.1c1,0,1.9,0.9,1.9,1.9&#10;&#9;&#9;C324.4,332.6,323.6,333.4,322.6,333.5z"/>
	<path class="st5_profiling-7" d="M440.1,333.5H406c-1,0-1.9-0.8-1.9-1.9c0-1,0.8-1.9,1.9-1.9c0,0,0,0,0,0h34.1c1,0,1.9,0.9,1.9,1.9&#10;&#9;&#9;C442,332.7,441.1,333.5,440.1,333.5z"/>
	<path class="st5_profiling-7" d="M313,347.2h-24.6c-1,0-1.9-0.8-1.9-1.9c0-1,0.8-1.9,1.9-1.9c0,0,0,0,0,0H313c1,0,1.9,0.9,1.9,1.9&#10;&#9;&#9;C314.9,346.4,314,347.2,313,347.2z"/>
	<path class="st5_profiling-7" d="M427.4,347.2H406c-1,0-1.9-0.8-1.9-1.9c0-1,0.8-1.9,1.9-1.9c0,0,0,0,0,0h21.4c1,0,1.9,0.9,1.9,1.9&#10;&#9;&#9;C429.2,346.3,428.4,347.1,427.4,347.2z"/>
</g>
<g id="character_profiling-7">
	<path class="st0_profiling-7 targetColor" d="M199.9,399.2c-1.8,0-3.6-0.1-5.4-0.4c-29.9-4.4-59.2-46.1-64.8-54.5c-4.4-6.8-2.6-15.8,4.2-20.3&#10;&#9;&#9;c6.6-4.4,15.6-2.6,20.1,3.9c10.6,15.8,32.2,40,44.8,41.8c1.2,0.3,2.6,0,3.5-0.8c18.9-15.4,14.9-44.4,14.8-44.7&#10;&#9;&#9;c-1.3-8,4.2-15.5,12.2-16.7s15.5,4.2,16.7,12.2c0.3,1.9,6.8,45.7-25.2,71.9C215,396.5,207.5,399.2,199.9,399.2z" style="fill: rgb(0, 0, 0);"/>
	<path class="st1_profiling-7" d="M199.9,401.1c-1.9,0-3.8-0.1-5.6-0.4c-30.6-4.5-60.4-46.8-66.1-55.3c-5.1-7.6-3.1-17.8,4.5-22.9&#10;&#9;&#9;c7.6-5.1,17.8-3.1,22.9,4.5c10.8,16.1,32,39.3,43.5,41c1.3,0.2,1.6,0,2.1-0.4c18-14.8,14.2-42.7,14.2-43c-1.4-9,4.7-17.4,13.7-18.9&#10;&#9;&#9;c9-1.4,17.5,4.7,18.9,13.7c0.3,1.9,7,46.8-25.9,73.6C215.8,398.3,208,401.1,199.9,401.1z M141.9,323.4c-7,0-12.7,5.7-12.7,12.7&#10;&#9;&#9;c0,2.5,0.8,5,2.2,7.1c5.5,8.2,34.4,49.3,63.5,53.6c8.9,1.5,18-1,24.9-6.7c31.2-25.5,24.8-68.4,24.5-70.2c-1.1-7-7.6-11.7-14.6-10.6&#10;&#9;&#9;S217.9,317,219,324c0.1,0.3,4.2,30.3-15.5,46.4c-1.4,1.2-3.2,1.6-5,1.2c-13.3-2-34.9-26.1-46.1-42.6&#10;&#9;&#9;C150.1,325.5,146.1,323.4,141.9,323.4L141.9,323.4z"/>
	<path class="st0_profiling-7 targetColor" d="M158,343.6c-8.4-15.1-12.1-21.6-26.5-21.6h-40c-16.8,0-30.4,13.7-30.4,30.5c0,0,0,0,0,0v99.4h97L158,343.6z" style="fill: rgb(0, 0, 0);"/>
	<path class="st1_profiling-7" d="M158,453.7H61c-1,0-1.9-0.8-1.9-1.9v-99.4c0-17.8,14.5-32.3,32.3-32.3h40c15.6,0,19.8,7.5,28.2,22.5&#10;&#9;&#9;c0.2,0.3,0.2,0.6,0.2,0.9v108.2C159.9,452.9,159,453.7,158,453.7L158,453.7z M62.9,450h93.2V344.1c-8.2-14.7-11.4-20.2-24.7-20.2&#10;&#9;&#9;h-40c-15.8,0-28.5,12.8-28.6,28.6V450z"/>
	<polygon class="st1_profiling-7" points="104.6,332.7 115.6,413 126.5,332.7 &#9;"/>
	<path class="st1_profiling-7" d="M115.6,414.9c-0.9,0-1.7-0.7-1.9-1.6l-10.9-80.3c-0.1-0.5,0.1-1.1,0.4-1.5c0.4-0.4,0.9-0.6,1.4-0.6h21.9&#10;&#9;&#9;c0.5,0,1.1,0.2,1.4,0.6c0.4,0.4,0.5,0.9,0.4,1.5l-10.9,80.3C117.3,414.2,116.5,414.9,115.6,414.9z M106.7,334.5l8.8,64.6l8.8-64.6&#10;&#9;&#9;L106.7,334.5z"/>
	<path class="st3_profiling-7" d="M95.5,134.9c10.4-6,23.9-5.3,29.9,8.2c3.8-5.2,10.4-7.8,16.9-8.5c7.3-0.8,14.9,0.6,21,4.7s10.3,11.2,10,18.5&#10;&#9;&#9;c4.5-0.2,9.2,0,13.4,1.6s8.1,4.8,9.6,9.1c1.9,5.8-0.8,12.3-5.2,16.5s-11.1,4.9-15.1,8.7c-3.2,3-4.8,10.8-4.8,14.9&#10;&#9;&#9;c0,6.3-1.1,12.5-2.2,18.7c-2.4,13.8-5.8,27.4-8.6,41.2h-118c-0.5,0-1.1-10.5-1.2-11.4c-0.6-6-3.4-7.3-8.6-9.9&#10;&#9;&#9;c-4.8-2.4-8.7-7-9.4-12.4s2.3-11.2,7.4-13c-5.1-2.6-8.9-8.1-8.3-13.8s6-10.7,11.7-9.9c-5.5-8.5-3.1-19.9,5.4-25.4&#10;&#9;&#9;c4.1-2.7,9.1-3.6,13.9-2.6c0.7-7.1,3.8-14.2,9.8-18.1s14.9-3.3,19.3,2.3C82.9,146,88.5,139,95.5,134.9z"/>
	<path class="st1_profiling-7" d="M161.7,270.1H42.3c-1.8,0-2-0.8-2.7-11.6c0-0.6-0.1-1.1-0.1-1.2c-0.5-5-2.5-6-7.2-8.4l-0.5-0.2&#10;&#9;&#9;c-5.6-2.8-9.6-8.1-10.3-13.6c-0.7-5.2,1.5-10.3,5.7-13.4c-4.5-3.3-7.2-8.7-6.7-13.8c0.4-3.5,2.2-6.7,5-8.9c1.6-1.3,3.5-2.1,5.6-2.5&#10;&#9;&#9;c-4.7-10-0.4-21.9,9.7-26.6c3.4-1.6,7.2-2.2,10.9-1.7c1.1-7.6,4.9-14.1,10.3-17.6c6-3.9,14-3.5,19.1,0.3c2-7.4,6.9-13.8,13.7-17.5&#10;&#9;&#9;l0,0c6.5-3.8,13.8-4.8,19.9-2.8c4.8,1.6,8.8,5,11.2,9.5c5-5.2,12.2-6.7,16.3-7.2c8.2-0.9,16.1,0.9,22.1,5&#10;&#9;&#9;c6.2,4.1,10.1,10.8,10.7,18.2c4.2-0.2,8.4,0.4,12.4,1.8c5.1,1.9,9,5.7,10.5,10.1c2,5.9-0.2,13-5.7,18.2c-2.4,2.2-5.3,3.5-8.2,4.8&#10;&#9;&#9;c-2.6,1.1-5.1,2.2-6.8,3.9c-2.7,2.6-4.3,9.7-4.3,13.8c0,6.2-1.1,12.5-2.1,18.5l-0.1,0.5c-1.6,9.1-3.6,18.2-5.6,27.1&#10;&#9;&#9;c-1,4.6-2.1,9.4-3.1,14.1L161.7,270.1z M43.5,266.9h115.5c0.9-4.3,1.9-8.7,2.8-12.9c1.9-8.8,4-17.9,5.5-26.9l0.1-0.5&#10;&#9;&#9;c1-5.9,2.1-12,2.1-17.9c0-4.4,1.7-12.6,5.3-16.1c2.2-2.1,5-3.3,7.8-4.5s5.3-2.3,7.3-4.2c3.7-3.5,6.6-9.4,4.8-14.8&#10;&#9;&#9;c-1.2-3.5-4.4-6.5-8.6-8.1s-8.9-1.7-12.8-1.5l-1.7,0.1l0.1-1.7c0.2-6.4-3.4-13.1-9.3-17.1c-5.4-3.6-12.4-5.2-19.9-4.4&#10;&#9;&#9;c-4.1,0.4-11.5,2-15.7,7.8l-1.7,2.3l-1.1-2.6c-2.2-5.1-5.8-8.5-10.4-10c-5.2-1.7-11.5-0.8-17.2,2.5l0,0&#10;&#9;&#9;c-7.2,4.1-11.9,10.9-12.6,18.2l-0.4,4l-2.5-3.2c-4-5.2-12.1-5.2-17.1-1.9s-8.4,9.5-9.1,16.9l-0.2,1.8l-1.8-0.4&#10;&#9;&#9;c-9-2-18,3.8-19.9,12.8c-0.9,4.4-0.1,9,2.4,12.7l2,3l-3.6-0.5c-2.2-0.3-4.4,0.4-6.1,1.8c-2.1,1.6-3.4,4-3.8,6.6&#10;&#9;&#9;c-0.5,4.8,2.6,9.8,7.4,12.2l3.4,1.7l-3.5,1.3c-4.2,1.5-7,6.4-6.3,11.3c0.6,4.5,3.9,8.8,8.5,11.2l0.5,0.2c5,2.5,8.3,4.2,9,10.9&#10;&#9;&#9;c0,0.2,0,0.6,0.1,1.4C43.1,262.6,43.3,265.5,43.5,266.9z"/>
	<path class="st4_profiling-7" d="M104.6,316.9h21.9l0,0v16.9c0,2.8-2.2,5-5,5h-12c-2.8,0-5-2.2-5-5v-16.9H104.6z"/>
	<path class="st1_profiling-7" d="M117.2,340.7h-3.3c-6.2,0-11.2-5-11.2-11.2v-12.6c0-1,0.8-1.9,1.8-1.9c0,0,0,0,0,0h21.9c1,0,1.9,0.8,1.9,1.9&#10;&#9;&#9;v12.6C128.4,335.6,123.4,340.6,117.2,340.7z M106.5,318.8v10.7c0,4.1,3.3,7.4,7.4,7.4h3.3c4.1,0,7.4-3.3,7.4-7.4v-10.7H106.5z"/>
	<ellipse class="st4_profiling-7" cx="172.2" cy="262.3" rx="16.4" ry="18.3"/>
	<path class="st1_profiling-7" d="M172.2,282.5c-10.1,0-18.3-9.1-18.3-20.2s8.2-20.2,18.3-20.2s18.3,9.1,18.3,20.2&#10;&#9;&#9;C190.5,273.5,182.3,282.5,172.2,282.5z M172.2,245.9c-8,0-14.5,7.4-14.5,16.5s6.5,16.5,14.5,16.5s14.5-7.4,14.5-16.5&#10;&#9;&#9;S180.2,245.9,172.2,245.9z"/>
	<path class="st4_profiling-7" d="M114.9,322c-36,0-68.2-44.4-68.2-79.8l10.2,7.7L80.6,199c0,0,10.6,16.8,44.2,7.9c33.8-8.9,50.2-13.2,50.2-13.2&#10;&#9;&#9;v64.1C174.9,293.3,150.9,322,114.9,322z"/>
	<path class="st1_profiling-7" d="M114.9,323.9c-37.1,0-70.1-45.7-70.1-81.7c0-1,0.8-1.9,1.9-1.9c0.4,0,0.8,0.1,1.1,0.4l8.3,6.3L79,198.3&#10;&#9;&#9;c0.3-0.6,0.9-1,1.6-1.1c0.7-0.1,1.3,0.3,1.7,0.9c0.4,0.6,10.4,15.5,42.1,7.1c33.8-8.9,50.2-13.2,50.2-13.2c1-0.3,2,0.3,2.3,1.3&#10;&#9;&#9;c0,0.2,0.1,0.3,0.1,0.5v64.1C176.8,296.1,150.8,323.9,114.9,323.9z M48.7,246.1c2.2,33.7,32.4,74.1,66.2,74.1s58.2-26.2,58.2-62.3&#10;&#9;&#9;v-61.7l-47.8,12.6c-26.9,7.1-39.6-1.7-44.2-6.3l-22.6,48.2c-0.2,0.5-0.7,0.9-1.2,1c-0.5,0.1-1.1,0-1.6-0.3L48.7,246.1z"/>
	<ellipse class="st1_profiling-7" cx="98.7" cy="249.9" rx="5.9" ry="5.9"/>
	<circle class="st1_profiling-7" cx="155.8" cy="249.9" r="5.9"/>
	<path class="st1_profiling-7" d="M130.2,266.2c-1.9,0-3.9-0.2-5.8-0.5c-1-0.2-1.6-1.2-1.4-2.2c0.2-1,1.1-1.6,2.1-1.5c0.1,0,5.2,0.9,8.8,0.1&#10;&#9;&#9;c0.4-1.7-1.9-8.1-5-14c-0.5-0.9-0.1-2,0.8-2.5c0.9-0.5,2-0.1,2.5,0.8c2.1,4,6.7,13.7,5,17.5c-0.4,0.9-1.2,1.6-2.2,1.8&#10;&#9;&#9;C133.5,266.1,131.9,266.2,130.2,266.2z"/>
	<path class="st1_profiling-7" d="M76.7,237.9c-2.1,0-3.8-1.6-3.8-3.7c0-1.8,1.3-3.4,3.1-3.7l27.8-5.4c2-0.4,4,0.9,4.4,3c0.4,2-0.9,4-3,4.4&#10;&#9;&#9;l-27.8,5.4C77.1,237.8,76.9,237.9,76.7,237.9z"/>
	<path class="st1_profiling-7" d="M161.9,232.6h-0.2l-28.3-1.3c-2.1-0.1-3.7-1.8-3.6-3.9s1.8-3.7,3.9-3.6l28.3,1.3c2.1,0,3.7,1.8,3.7,3.8&#10;&#9;&#9;C165.7,231,164,232.6,161.9,232.6z"/>
	<path class="st4_profiling-7" d="M59.5,246.7c0,0-15.7-10.8-24.1,3.1s-0.3,37.8,25.6,30.8"/>
	<path class="st1_profiling-7" d="M52.2,283.8c-9.6,0-14.9-4.8-17.4-8.2c-5.6-7.5-6-18.5-1-26.8c2.5-4.2,6-6.8,10.1-7.7c8.2-1.8,16.3,3.8,16.6,4&#10;&#9;&#9;c0.9,0.6,1.1,1.7,0.5,2.6c-0.6,0.9-1.7,1.1-2.6,0.5c0,0,0,0-0.1,0c-0.1,0-7.1-4.8-13.8-3.4c-3.1,0.7-5.7,2.7-7.7,6&#10;&#9;&#9;c-4.2,6.9-3.8,16.4,0.8,22.6s12.7,8.1,22.7,5.5c1-0.3,2,0.3,2.3,1.3s-0.3,2-1.3,2.3C58.5,283.3,55.4,283.8,52.2,283.8z"/>
	<path class="st1_profiling-7" d="M123.1,293.8c-2.1,0-4.2-0.2-6.3-0.7c-8-1.9-14.7-7.4-19.8-16.5c-0.5-0.9-0.2-2,0.7-2.5c0.9-0.5,2-0.2,2.5,0.7&#10;&#9;&#9;c4.6,8.1,10.4,13.1,17.4,14.7c11.8,2.8,23-4.8,23.2-4.9c0.9-0.6,2-0.4,2.6,0.5c0.6,0.9,0.4,2-0.5,2.6&#10;&#9;&#9;C142.5,288,133.8,293.8,123.1,293.8z"/>
	<path class="st0_profiling-7 targetColor" d="M106,427.2c-6.9,0-13.5-2.4-18.8-6.8c-9.8-8.2-15.9-23-18.6-45.3c-1.1-9.3-1.6-18.6-1.4-27.9&#10;&#9;&#9;c0.2-8.1,7-14.4,15.1-14.2s14.4,7,14.2,15.1l0,0c-0.7,24.2,4.6,47,9.5,50c0.2,0,0.4,0,0.6-0.1c11.5-2.5,22.9-35.3,26-63.2&#10;&#9;&#9;c0.9-8,8.1-13.8,16.1-13c8,0.9,13.8,8.1,13,16.1l0,0c-1.4,13.4-10.5,80.4-48.9,88.7C110.6,426.9,108.3,427.2,106,427.2z" style="fill: rgb(0, 0, 0);"/>
	<path class="st1_profiling-7" d="M106,429c-7.3,0-14.4-2.6-20-7.3c-10.2-8.5-16.5-23.7-19.2-46.5c-1.1-9.4-1.5-18.8-1.3-28.2&#10;&#9;&#9;c0.3-9.1,7.9-16.3,17-16s16.3,7.9,16,17l0,0c-0.7,23.1,4.3,44.1,8.1,47.9c9.5-2.6,20.9-31.7,24.2-61.5c1.3-9,9.6-15.3,18.7-14&#10;&#9;&#9;c8.6,1.2,14.8,8.9,14.2,17.6c-1.5,13.6-10.7,81.7-50.3,90.3C110.8,428.8,108.4,429,106,429z M81.9,334.7c-6.9,0-12.5,5.5-12.7,12.4&#10;&#9;&#9;c-0.2,9.2,0.3,18.5,1.4,27.7c2.6,21.9,8.5,36.3,17.9,44.1c4.9,4.1,11.1,6.4,17.6,6.4l0,0c2.1,0,4.3-0.2,6.4-0.7&#10;&#9;&#9;c37.1-8,46-73.9,47.4-87c0.8-7-4.3-13.3-11.3-14.1s-13.3,4.3-14.1,11.3c-2.8,25.3-13.8,61.9-27.4,64.8c-0.3,0.1-0.6,0.1-0.9,0.1&#10;&#9;&#9;c-0.4,0-0.7-0.1-1.1-0.3c-6-3.8-11-28.4-10.4-51.7c0.2-7-5.3-12.9-12.4-13.1H81.9z"/>
	
		<rect x="141.7" y="300.4" transform="matrix(0.1343 -0.9909 0.9909 0.1343 -171.7135 415.6975)" class="st1_profiling-7" width="20.8" height="11.4"/>
	<path class="st1_profiling-7" d="M156.3,319.1h-0.2l-11.3-1.5c-1-0.1-1.7-1.1-1.6-2.1l2.8-20.6c0.1-1,1.1-1.7,2.1-1.6c0,0,0,0,0,0l11.3,1.5&#10;&#9;&#9;c0.5,0.1,0.9,0.3,1.2,0.7c0.3,0.4,0.4,0.9,0.4,1.4l-2.8,20.6c-0.1,0.5-0.3,0.9-0.7,1.2C157.1,319,156.7,319.1,156.3,319.1z&#10;&#9;&#9; M147.1,314.1l7.6,1l2.3-16.9l-7.6-1L147.1,314.1z"/>
	
		<rect x="143.8" y="281.2" transform="matrix(0.1343 -0.9909 0.9909 0.1343 -153.8076 403.8745)" class="st6_profiling-7" width="20.8" height="17.5"/>
	<path class="st1_profiling-7" d="M161.5,303.3h-0.2l-17.3-2.3c-0.5-0.1-0.9-0.3-1.2-0.7c-0.3-0.4-0.4-0.9-0.4-1.4l2.8-20.6&#10;&#9;&#9;c0.1-1,1.1-1.7,2.1-1.6c0,0,0,0,0,0l17.3,2.4c1,0.1,1.7,1.1,1.6,2.1c0,0,0,0,0,0l-2.8,20.6c-0.1,0.5-0.3,0.9-0.7,1.2&#10;&#9;&#9;C162.3,303.2,161.9,303.4,161.5,303.3z M146.3,297.5l13.6,1.9l2.3-16.9l-13.6-1.9L146.3,297.5z"/>
	<path class="st6_profiling-7" d="M144.4,312.6l13.4,1.8c1.1,0.1,1.9,1.2,1.7,2.2l-5.9,43.3c-0.1,1.1-1.2,1.9-2.2,1.7l-13.4-1.8&#10;&#9;&#9;c-1.1-0.1-1.9-1.2-1.7-2.2l5.9-43.3C142.3,313.3,143.3,312.5,144.4,312.6z"/>
	<path class="st1_profiling-7" d="M150.1,363.4c-0.3,0-0.5,0-0.8,0l0,0l-10-1.4c-3.1-0.4-5.2-3.2-4.8-6.3c0,0,0,0,0,0l5.4-39.9&#10;&#9;&#9;c0.4-3.1,3.2-5.2,6.3-4.8l10,1.4c3.1,0.4,5.2,3.2,4.8,6.3c0,0,0,0,0,0l-5.4,39.9C155.3,361.4,152.9,363.4,150.1,363.4z&#10;&#9;&#9; M149.9,359.7c1,0.1,2-0.6,2.1-1.6l5.4-39.9c0.1-1-0.6-2-1.6-2.1l-10-1.4c-1-0.1-1.9,0.6-2.1,1.6l-5.4,39.9c-0.1,1,0.6,2,1.6,2.1&#10;&#9;&#9;L149.9,359.7z"/>
	<path class="st6_profiling-7" d="M165,211.1c-22.5-3.1-43.3,12.7-46.3,35.3c-3.1,22.5,12.7,43.3,35.3,46.3c22.5,3.1,43.2-12.7,46.3-35.2&#10;&#9;&#9;C203.3,234.9,187.5,214.2,165,211.1C165,211.1,165,211.1,165,211.1z M155.8,279.1c-15-2-25.6-15.9-23.5-30.9&#10;&#9;&#9;c2-15,15.9-25.6,30.9-23.5s25.6,15.9,23.5,30.9c0,0,0,0,0,0C184.7,270.6,170.8,281.2,155.8,279.1&#10;&#9;&#9;C155.8,279.1,155.8,279.1,155.8,279.1L155.8,279.1z"/>
	<path class="st1_profiling-7" d="M159.4,294.9c-1.9,0-3.9-0.1-5.8-0.4c-23.5-3.2-40-24.9-36.8-48.4s24.9-40,48.4-36.8&#10;&#9;&#9;c23.5,3.2,40,24.9,36.8,48.4C199.1,279,181,294.9,159.4,294.9z M159.3,212.6c-21.8,0-39.5,17.7-39.5,39.5s17.7,39.5,39.5,39.5&#10;&#9;&#9;s39.5-17.7,39.5-39.5c0-19.7-14.5-36.5-34.1-39.2C162.9,212.8,161.1,212.6,159.3,212.6z M159.5,281.3c-1.3,0-2.7-0.1-4-0.3l0,0&#10;&#9;&#9;c-16-2.2-27.2-17-25-33s17-27.2,33-25s27.2,17,25,33C186.5,270.5,174.1,281.3,159.5,281.3z M159.4,226.3&#10;&#9;&#9;c-14.1-0.1-25.7,11.2-25.8,25.4c-0.1,13,9.5,24,22.4,25.6l0,0c14,1.9,26.9-7.9,28.8-21.9c1.9-14-7.9-26.9-21.9-28.8&#10;&#9;&#9;C161.7,226.4,160.6,226.3,159.4,226.3L159.4,226.3z"/>
	<circle class="st2_profiling-7" cx="159.4" cy="251.9" r="27.5"/>
	<ellipse class="st1_profiling-7" cx="152.1" cy="248.6" rx="5.9" ry="5.9"/>
	<path class="st1_profiling-7" d="M159.5,281.3c-1.3,0-2.7-0.1-4-0.3c-16-2.2-27.2-17-25-33s17-27.2,33-25s27.2,17,25,33&#10;&#9;&#9;C186.5,270.5,174.1,281.3,159.5,281.3z M159.4,226.3c-14.1,0-25.6,11.5-25.5,25.6c0,14.1,11.5,25.6,25.6,25.5S185,266,185,251.9&#10;&#9;&#9;c0-12.8-9.5-23.6-22.1-25.3C161.7,226.4,160.6,226.3,159.4,226.3L159.4,226.3z"/>
	<path class="st4_profiling-7" d="M135.3,317.1c0.7-1.5,1.8-2.8,3.2-3.7c3.4-1.9,9.6-1.6,13.3-1.4c4,0.2,8.4,1.2,11,4.8c2,2.8,2.5,6.7,2.4,10.3&#10;&#9;&#9;c-0.2,6.5-2,12.8-5.3,18.4c-1.3,2.5-3.2,4.5-5.6,6c-1.8,0.9-3.8,1.3-5.8,1.2c-5.3-0.2-10.3-2.9-13.4-7.2c-4.5-6.2-4-15.9-1.9-23.1&#10;&#9;&#9;C133.9,320.6,134.5,318.8,135.3,317.1z"/>
	<path class="st1_profiling-7" d="M149.1,354.5h-0.5c-5.9-0.2-11.4-3.2-14.9-8c-5-6.9-4.4-17.3-2.1-24.7c0.5-1.9,1.2-3.8,2.1-5.5l0,0&#10;&#9;&#9;c0.8-1.9,2.2-3.4,4-4.5c3.8-2.1,10.4-1.8,14.3-1.6c5.8,0.3,10,2.1,12.5,5.6c2,2.7,2.9,6.6,2.8,11.5c-0.2,6.8-2.1,13.4-5.6,19.2&#10;&#9;&#9;c-1.9,3.3-4,5.4-6.3,6.7C153.4,354,151.2,354.5,149.1,354.5z M147.5,313.7c-2.9,0-6.2,0.2-8.1,1.3c-1.1,0.7-1.9,1.8-2.4,3l0,0&#10;&#9;&#9;c-0.8,1.6-1.4,3.2-1.8,4.9c-1.9,6.3-2.6,15.7,1.6,21.5c2.8,3.9,7.2,6.2,11.9,6.4c1.7,0.1,3.3-0.2,4.8-1c1.7-0.9,3.3-2.6,4.9-5.3&#10;&#9;&#9;c3.1-5.3,4.8-11.3,5-17.4c0.1-4-0.6-7.1-2-9.2c-1.8-2.5-4.9-3.8-9.6-4C150.6,313.8,149.1,313.7,147.5,313.7z M135.3,317.1&#10;&#9;&#9;L135.3,317.1z"/>
	<path class="st4_profiling-7" d="M163.1,321.6c-0.8,2.8-1,5.8-0.7,8.7c0.2,2.7-0.9,9.7,3,10.6c3.5,0.7,5.9-5.1,6.3-7.8&#10;&#9;&#9;c0.6-3.2,1.1-9.6-0.6-12.6c-1.6-2.9-5.5-3.6-7.3-0.5C163.5,320.4,163.3,321,163.1,321.6z"/>
	<path class="st1_profiling-7" d="M166,342.7c-0.3,0-0.7,0-1-0.1c-4.7-1-4.6-6.8-4.5-10.3c0-0.7,0-1.4,0-1.9c-0.4-3.2-0.1-6.3,0.8-9.4l0,0&#10;&#9;&#9;c0.2-0.7,0.5-1.4,0.9-2.1c1-1.8,3-3,5.1-2.9c2.3,0.1,4.5,1.4,5.5,3.5c2.2,4.2,1,12.3,0.8,13.9c-0.4,2.4-2,6.6-4.7,8.5&#10;&#9;&#9;C168,342.4,167,342.7,166,342.7z M164.9,322.2c-0.7,2.6-0.9,5.3-0.6,7.9c0,0.6,0,1.4,0,2.3c-0.1,2.3-0.1,6.3,1.5,6.6&#10;&#9;&#9;c0.4,0.1,0.7,0,1-0.3c1.5-1,2.8-4.2,3.1-6c0.7-3.9,0.8-9.2-0.4-11.5c-0.4-0.9-1.3-1.5-2.3-1.5c-0.7,0-1.4,0.4-1.8,1.1&#10;&#9;&#9;C165.2,321.2,165,321.7,164.9,322.2L164.9,322.2z"/>
	
		<rect x="172.1" y="282.4" transform="matrix(9.045877e-02 -0.9959 0.9959 9.045877e-02 -119.2092 524.2546)" class="st2_profiling-7" width="110.6" height="90"/>
	<path class="st1_profiling-7" d="M267.2,388.4H267l-89.6-8.1c-1-0.1-1.8-1-1.7-2l10-110.2c0-0.5,0.3-1,0.7-1.3c0.4-0.3,0.9-0.5,1.4-0.4&#10;&#9;&#9;l89.6,8.1c1,0.1,1.8,1,1.7,2l-10,110.2c-0.1,0.5-0.3,0.9-0.7,1.3C268,388.3,267.6,388.4,267.2,388.4z M179.6,376.7l85.9,7.8&#10;&#9;&#9;l9.7-106.4l-85.9-7.8L179.6,376.7z"/>
	<path class="st4_profiling-7" d="M274.4,321.1c3.8,1.1,6.6,4.2,7.2,8.1c1.5,6.9,2.4,14.5-1.5,18.1s-26.5,8.8-26.5-2.1s1.5-18,4.7-18.2&#10;&#9;&#9;s15.3,2.2,15.3,2.2L274.4,321.1z"/>
	<path class="st1_profiling-7" d="M263.6,353.6c-2.4,0.1-4.8-0.3-7-1.2c-3-1.1-4.9-4-4.8-7.2c0-13.3,2-19.7,6.4-20.1c2.7-0.2,10.1,1.1,13.8,1.9&#10;&#9;&#9;l0.5-6c0-0.5,0.3-1,0.8-1.3c0.4-0.3,1-0.4,1.5-0.3c4.5,1.2,7.9,5,8.7,9.5c1.5,7,2.6,15.5-2,19.8C279,350.9,270.7,353.6,263.6,353.6&#10;&#9;&#9;z M259.1,328.8h-0.5c0,0-3,0.7-3,16.4c-0.1,1.7,1,3.2,2.5,3.7c5.8,2.6,18.5-0.9,20.8-3c3.3-3,2.1-10.8,0.9-16.3&#10;&#9;&#9;c-0.4-2.3-1.8-4.4-3.8-5.7l-0.5,5.5c0,0.5-0.3,1-0.8,1.3c-0.4,0.3-1,0.4-1.5,0.3C269,330.2,261.7,328.8,259.1,328.8z"/>
	<path class="st1_profiling-7" d="M275.3,299.2h-0.2l-88.3-7.4c-1-0.1-1.7-1.1-1.6-2.1c0.1-0.9,1-1.6,1.9-1.6l88.3,7.4c1,0,1.8,0.9,1.8,1.9&#10;&#9;&#9;C277.2,298.5,276.3,299.3,275.3,299.2L275.3,299.2z"/>
</g>
</svg>