<svg transform="scale(1)" id="xNiBaWeIHI" xmlns="http://www.w3.org/2000/svg" viewBox="0 0 500 500" class="pbimage_pbimage__wrapper__image__0LEis false"><title>Rocket Boy</title><defs><style> .cls-1{fill:#d6b2a4;} .cls-2{fill:#fff;} .cls-3{fill:#ffde91;} .cls-4{fill:#af93a2;} .cls-5{fill:#292e54;} .cls-6{fill:#e6e7e8;} .cls-7{fill:#bcbec0;}
 .cls-7{fill:#BCBEC0;}
 .cls-6{fill:#E6E7E8;}
 .cls-5{fill:#292E54;}
 .cls-4{fill:#AF93A2;}
 .cls-3{fill:#FFDE91;}
 .cls-2{fill:#FFFFFF;}
 .cls-1{fill:#D6B2A4;}</style></defs><g id="bg"><path class="cls-6" d="M116.46,116.07c-7.86,14.36-13.94,29.79-24.46,42.54-13.48,16.35-33.35,27.22-46.59,43.74-23.85,29.77-19.55,76.41,9.37,101.83,19.74,17.34,47.39,24.37,68.43,40.29,21.04,15.92,34.05,39.62,54.31,56.43,38.13,31.64,101.21,31.68,139.39,.09,19.14-15.84,31.57-37.56,48.1-55.83,19.04-21.03,43.31-37.25,63.32-57.46,20-20.21,36.15-46.68,32.86-74.19-3.7-31-30.26-54.32-47.88-80.7-12.81-19.18-21.24-40.82-34.91-59.46-13.67-18.64-34.75-34.72-58.74-34.38-32.32,.46-55.68,29.09-85.7,40.45-24.54,9.28-49.22,5.26-74.63,3.47-21.44-1.51-33.62,16.25-42.89,33.18Z" fill="#E6E7E8"></path><path class="cls-6" d="M371.96,367.12c-3.7,5.8-7.11,12-7.78,18.74-.68,6.74,1.92,14.16,7.99,17.74,6.1,3.6,14.34,2.51,20.43-1.11,6.09-3.62,10.4-9.36,14.11-15.19,7.55-11.88,13.43-24.99,23.69-34.9,5.06-4.88,11.05-8.85,16-13.83,4.96-4.98,8.94-11.39,8.59-18.22-2.24-43.45-75.79,35.42-83.03,46.76Z" fill="#E6E7E8"></path></g><g id="rocket"><g><path class="cls-3" d="M66.14,375.04c-3.61,1.27-3.49,6.37,.17,7.52,2.8,.88,5.8,1.36,8.7,1.74,15.66,2.01,31.53,2.3,47.25,.86,8.4-.77,10.42-8.13,6.34-15.03-3.28-5.55-9.25-5.7-15.07-5.3-16.01,1.1-32.16,4.87-47.4,10.21Z"></path><path class="cls-3" d="M123.73,485.47c-3.11,2.24-7.22-.79-6.07-4.44,.88-2.8,2.2-5.54,3.56-8.13,7.31-13.99,16.16-27.18,26.34-39.24,5.44-6.44,12.63-3.89,15.96,3.4,2.68,5.87-.62,10.84-4.28,15.39-10.07,12.5-22.4,23.59-35.51,33.02Z"></path></g><path class="cls-3" d="M87.57,422.21c-2.74,2.82-5.58,6.74-3.98,10.32,1.71,3.84,7,4.07,11.18,3.62,15.48-1.67,30.85-4.46,45.93-8.33,3.26-.84,6.79-1.91,8.69-4.69,2.54-3.71,1.12-8.75-.64-12.89-2.62-6.15-5.97-14.87-10.87-19.56-4.68-4.48-9.11-.28-13.91,2.61-13.3,8.03-25.57,17.77-36.39,28.91Z"></path><path class="cls-1" d="M181.14,446.18c21.55-11.55,42.99-23.31,64.32-35.27,25.91-14.53,51.86-29.51,74.13-49.18,16.95-14.96,31.77-32.86,41.28-53.48,2-4.33,5.85-10.9,5.97-15.75,.04-1.58-1.99-5.48-3.31-6.35-4.05-2.67-11.64-3.28-16.33-4.12-22.36-4-45.51-2.09-67.48,3.24-28.87,7.01-56.01,19.71-82.76,32.64-22.01,10.64-43.93,21.49-65.73,32.55-4.43,2.25-9.11,4.74-11.52,9.09-2.78,5.01-1.84,11.21-.47,16.78,2.94,11.94,25.72,55.63,33.83,64.87,3.78,4.31,8.32,8.63,14.02,9.22,4.94,.51,9.67-1.9,14.05-4.25Z"></path><g><path class="cls-1" d="M133.73,297.39c-4.77-.63-9.69-1.16-14.32,.15-4.63,1.31-8.93,4.88-9.67,9.63-.82,5.26,2.72,10.1,6.07,14.25,6.77,8.38,13.53,16.76,20.3,25.15,2.3,2.85,4.79,5.84,8.25,7.04,4.61,1.6,9.61-.37,14.08-2.32,9.86-4.29,19.72-8.6,29.56-12.93,6.53-2.87,22.71-6.53,25.39-13.82,4.4-11.97-37.41-18.97-45.66-20.91-11.22-2.64-22.57-4.72-34-6.24Z"></path><path class="cls-1" d="M226.09,474.5c-2.21,4.27-4.6,8.61-8.32,11.65-3.72,3.04-9.12,4.53-13.44,2.42-4.78-2.34-6.73-8.02-8.21-13.13-3-10.35-6-20.69-9-31.04-1.02-3.52-2.05-7.27-1.05-10.79,1.33-4.69,5.81-7.67,9.96-10.22,9.17-5.63,18.34-11.24,27.53-16.84,6.09-3.71,18.35-14.89,25.86-12.91,12.34,3.24-5.86,41.54-8.99,49.41-4.26,10.71-9.05,21.21-14.35,31.45Z"></path></g><path class="cls-4" d="M245.45,410.91c25.91-14.53,51.86-29.51,74.13-49.18,1.86-1.64,3.69-3.33,5.5-5.04-11.43-6.66-21.82-17.42-29.06-31.3-7.24-13.88-10.11-28.56-9.03-41.74-2.44,.5-4.87,1.04-7.28,1.62-28.87,7.01-56.01,19.71-82.76,32.64-22.01,10.64-43.93,21.49-65.73,32.55-4.43,2.25-9.11,4.74-11.52,9.09-2.78,5.01-1.84,11.21-.47,16.78,2.94,11.94,25.72,55.63,33.83,64.87,3.78,4.31,8.32,8.63,14.02,9.22,4.94,.51,9.67-1.9,14.05-4.25,21.55-11.55,42.99-23.31,64.32-35.27Z"></path><circle class="cls-1" cx="227.16" cy="361.3" r="30.92"></circle><circle class="cls-6" cx="227.97" cy="360.88" r="23.17"></circle><path class="cls-2" d="M168.76,437.96c-.31,0-.63-.01-.94-.04-2.37-.2-4.71-1.51-6.12-3.42-1.07-1.45-1.48-3.13-1.13-4.71,.06-.27,.32-.44,.59-.38,.27,.06,.44,.32,.38,.59-.36,1.67,.32,3.04,.96,3.91,1.22,1.65,3.34,2.84,5.4,3.02,3.79,.33,7.55-1.63,10.57-3.2l23.52-12.24c17.16-8.93,34.91-18.17,51.58-28.6,39.97-25,75.79-58.34,103.59-96.43,.16-.22,.47-.27,.7-.11,.22,.16,.27,.48,.11,.7-27.87,38.19-63.78,71.62-103.86,96.69-16.71,10.45-34.47,19.7-51.65,28.64l-23.52,12.24c-2.89,1.51-6.44,3.35-10.18,3.35Z"></path><path class="cls-2" d="M244.42,355.63s-.06,0-.1,0c-9.49-1.89-19.18-2.39-28.81-1.49-.27,.02-.52-.18-.54-.45-.03-.27,.18-.52,.45-.54,9.73-.91,19.52-.4,29.1,1.51,.27,.05,.45,.32,.39,.59-.05,.24-.26,.4-.49,.4Z"></path><path class="cls-2" d="M236.26,360.52s-.02,0-.03,0l-13.74-.86c-.28-.02-.48-.25-.47-.53s.24-.49,.53-.47l13.74,.86c.28,.02,.48,.25,.47,.53-.02,.27-.24,.47-.5,.47Z"></path></g><g id="character"><path class="cls-3" d="M167.98,216.27c-3.44,2.55-5.09,6.97-5.26,11.25-.16,4.28,.97,8.49,2.16,12.6,4.93,17.02,11.02,33.68,17.1,50.32,1.57,4.29,3.25,8.75,6.63,11.82,4.29,3.89,10.49,4.77,16.29,4.9,13.85,.29,27.54-2.71,40.98-6.08,4.34-1.09,8.74-2.25,12.53-4.63,3.79-2.38,6.93-6.2,7.39-10.65,.63-6.1-3.71-11.5-7.94-15.94-20.27-21.26-44.52-38.63-71.11-51.1-5.54-2.6-13.01-6.75-18.77-2.49Z"></path><path class="cls-3" d="M190.76,374.65c-1.87,3.6-4.21,6.99-5.4,10.87-.27,.87-.44,1.91,.14,2.61,.93,1.12,2.75,.35,3.9-.55,6.65-5.18,11.41-12.74,13.22-20.98,.16-.71,.28-1.49-.1-2.11-1.6-2.64-6.8-3.46-8.44-.82-1.85,2.97-1.59,7.65-3.32,10.98Z"></path><path class="cls-3" d="M236.37,368.2c-.11,1.67-.1,3.71,1.34,4.57,1,.6,2.34,.31,3.26-.39,.92-.71,1.52-1.75,2.04-2.79,3.38-6.74,4.87-14.42,4.25-21.93-.12-1.47-.36-3.03-1.32-4.15-.77-.9-1.89-1.39-2.97-1.86-1.91-.82-5.23-2.66-7.14-.88-1.86,1.73-.34,5.62-.07,7.71,.86,6.53,1.06,13.15,.61,19.72Z"></path><path class="cls-5" d="M156.56,290.6c-2.84,.17-5.79,.49-8.2,2-3.7,2.32-5.3,7.01-5.26,11.37,.09,8.9,5.69,16.68,11.12,23.74,11.35,14.74,23.26,29.47,38.72,39.81,1.92-1.63,3.83-3.26,5.75-4.89-10.65-8.93-18.95-20.65-23.82-33.67-.83-2.21-1.56-4.67-.75-6.89,1.14-3.13,4.96-4.51,8.27-4.17,3.31,.34,6.33,1.95,9.46,3.08,9.29,3.35,20.06,2.31,28.54-2.75,4.35-2.59,8.23-6.41,9.62-11.28,1.39-4.87-.33-10.81-4.8-13.2-3.11-1.67-6.98-1.39-10.26-.1-3.97,1.57-6.67,5-11.16,4.08-4.99-1.03-9.83-3.29-14.85-4.44-10.59-2.42-21.53-3.34-32.38-2.69Z"></path><path class="cls-5" d="M204.09,281.75c7.54,22.24,17.52,43.66,29.7,63.74,2.21-1.29,4.42-2.58,6.64-3.87-1.32-4.41-3.76-8.39-5.39-12.69-1.63-4.3-2.37-9.3-.26-13.39,2.22-4.31,6.95-6.54,11.13-9,4.18-2.45,8.46-6.1,8.53-10.94,.07-4.59-3.65-8.23-7.09-11.27-7.6-6.71-15.19-13.43-22.79-20.14-4.39-3.88-13.94-11.54-20.21-7.13-7.21,5.07-2.42,18.3-.26,24.68Z"></path><path class="cls-2" d="M218.38,317.5c-.22,0-.44-.12-.56-.33-3.47-6.17-6.24-12.73-8.25-19.52-.1-.34,.09-.7,.43-.8,.34-.1,.7,.09,.8,.43,1.98,6.69,4.72,13.17,8.14,19.25,.17,.31,.06,.7-.24,.87-.1,.06-.21,.08-.31,.08Z"></path><path class="cls-2" d="M232.85,319.76c-.28,0-.54-.18-.62-.46-4.56-15.86-8.04-32.19-10.35-48.53-.05-.35,.19-.68,.55-.72,.35-.05,.68,.19,.72,.55,2.3,16.28,5.76,32.55,10.31,48.35,.1,.34-.1,.7-.44,.79-.06,.02-.12,.03-.18,.03Z"></path><path class="cls-4" d="M177.62,196.46c.93,4.08,1.5,8.94-1.96,12.34-2.92,2.88-7.84,3.54-11.64,2.49-3.8-1.04-6.73-3.45-9.48-5.85-15.32-13.41-28.46-28.6-41.57-43.75-2.96-3.42-6.06-7.27-5.48-11.85,.78-6.17,7.81-10.86,14.47-13.62,6.58-2.74,17.49-6.95,24.41-5.12,6.51,1.71,9.3,9.86,11.92,14.62,8.75,15.94,15.26,33,19.32,50.74Z"></path><path class="cls-5" d="M158.31,135.99c1.91-4.79,.16-11.1-4.51-13.3,4.75-2.52,6.88-9.03,4.55-13.87-2.33-4.84-8.75-7.23-13.68-5.09-2.77-5.42-8.52-9.19-14.6-9.57-6.08-.37-12.25,2.67-15.66,7.71-3.56-3.3-9.37-3.86-13.5-1.31s-6.22,8.01-4.85,12.67c-4.58-4.29-12.91-3.42-16.51,1.72-3.6,5.14-1.57,13.27,4.02,16.11-5.43,2.06-9.34,7.59-9.48,13.39-.14,5.8,3.51,11.51,8.83,13.83-2.69,4.96-1.83,11.6,2.04,15.7,3.87,4.1,10.45,5.35,15.56,2.95-2.62,4.14,0,9.96,4.18,12.49,4.19,2.53,9.35,2.66,14.25,2.71,3.4,.03,6.92,.03,10.04-1.31,3.13-1.34,5.78-4.39,5.56-7.79-.22-3.39-4.31-6.24-7.23-4.5-.1-7.88-6.23-15.27-13.95-16.83-.83-.17,.98-7.31,1.22-7.97,1.34-3.73,3.12-4.13,5.9-6.51,3.93-3.35,4.02-5.72,9.47-3.86,9.61,3.27,23.6,4.59,28.35-7.36Z"></path><path class="cls-4" d="M129.76,174.49c-1.2-1.26-3.04-1.9-4.74-1.56-1.7,.34-3.18,1.71-3.57,3.4-.52,2.29,.91,4.58,2.64,6.17,1.75,1.61,3.91,2.82,6.26,3.16,2.35,.34,4.88-.26,6.63-1.86"></path><path class="cls-5" d="M162.72,161.77c-.14,.48-.79,.71-1.29,.58-.5-.13-.85-.52-1.14-.92-.52-.74-2.19-3.98-.19-3.88,.98,.05,2.83,3.5,2.62,4.22Z"></path><path class="cls-5" d="M149.05,168.22c.17,.51-.24,1.09-.8,1.26-.56,.17-1.19-.02-1.64-.36-.96-.73-2.55-3.53-.8-4.17,1.63-.59,2.88,2.23,3.23,3.28Z"></path><path class="cls-5" d="M169.96,197.1c.15,2.26-1.18,4.51-3.16,5.6-1.98,1.09-4.51,1.04-6.52,0-1.36-.7-2.49-1.84-3.24-3.17-1.09-1.95-.54-2.23,1.52-2.28,3.8-.09,7.6-.1,11.4-.15Z"></path><path class="cls-3" d="M307.84,170.57c.58,1.96-.54,4.23-1.75,6.26-10.58,17.79-30.54,31.95-52.01,39.4-21.47,7.45-44.26,8.6-65.05,5.62-3.67-.53-7.5-1.32-10.62-2.78-2.7-1.26-.75-5.15,2.52-5.02,7.72,.31,15.6,0,23.51-.93,13.91-1.64,27.99-5.25,41.06-11.24,12.7-5.82,24.17-13.75,34.9-22.19,2.68-2.11,5.33-4.26,7.95-6.42,2.21-1.82,4.99-5.05,7.63-6.24,3.85-1.74,10.91,.31,11.86,3.55Z"></path><path class="cls-4" d="M296.26,133.85c-.33-2.89-.75-5.83-.22-8.69,.52-2.86,2.18-5.7,4.87-6.8,3.98-1.63,8.67,1.24,10.5,5.13,1.83,3.89,1.53,8.41,1.03,12.69,7.27-4.24,14.97-7.73,22.95-10.41,3.91-1.31,8.11-2.44,12.12-1.46,4.01,.97,7.62,4.76,6.99,8.83-.47,3.02-3.04,5.3-5.76,6.7-1.55,.79-3.48,1.82-3.37,3.56,.06,.89,.68,1.62,1.09,2.42,1.03,1.99,.72,4.48-.37,6.43-1.09,1.96-2.85,3.45-4.72,4.69-10.05,6.66-22.77,6.66-33.34,12.15-2.83,1.48-10.3,8.79-12,3.02-1.31-4.43,.94-11.6,1.11-16.2,.26-7.36-.03-14.74-.87-22.05Z"></path><path class="cls-5" d="M163.38,166.54c-.15,.08-.3,.16-.45,.24-2.04,1.06-4.04,1.98-6.1,1.58-1.51-.29-3.05-1.48-4.02-3.11-.87-1.46-1.15-3.04-.75-4.32,.75-2.4,4.29-3.95,6.87-5.07,.57-.25,1.09-.48,1.52-.68h0c.77-.38,1.67-.76,2.58-.5,1.02,.29,1.53,1.3,1.77,1.78,.58,1.17,1.1,2.38,1.54,3.61,.37,1.03,.66,2.13,.34,3.24-.45,1.52-1.87,2.48-3.28,3.24Zm-6.97-8.12c-1.49,.81-2.82,1.77-3.16,2.88-.3,.95-.07,2.15,.63,3.31,.78,1.31,2.04,2.3,3.19,2.52,1.68,.32,3.46-.51,5.3-1.46,1.31-.68,2.75-1.52,3.11-2.73,.24-.8-.04-1.69-.31-2.47-.42-1.18-.92-2.35-1.48-3.47-.3-.6-.59-1.02-1-1.14-.48-.14-1.12,.15-1.69,.42-.44,.22-.98,.45-1.57,.71-.9,.39-2,.87-3.01,1.42Z"></path><path class="cls-5" d="M149.87,173.46c-.08,.04-.16,.09-.24,.13-2.31,1.22-5.48,2.88-8.65,2.5-1.41-.17-2.85-.88-4.07-1.99-.48-.44-.79-.94-1.06-1.39-.42-.68-.68-1.07-1.23-1.2-1.17-.28-2.78-.15-4.21-.04-.46,.04-.91,.07-1.32,.09-1.97,.1-3.97,.29-5.93,.57-.34,.05-.66-.19-.71-.53-.05-.34,.19-.66,.53-.71,2-.28,4.03-.48,6.04-.58,.4-.02,.84-.05,1.29-.09,1.52-.12,3.23-.25,4.6,.07,.01,0,.03,0,.04,0,0-.44,.07-.87,.22-1.28,.79-2.22,4-4.1,9.8-5.77,1.09-.31,2.48-.59,3.61,0,1.06,.56,1.48,1.64,1.84,2.58,.13,.35,.27,.69,.43,1.01,.16,.3,.35,.59,.54,.88,.6,.92,1.28,1.95,.96,3.2-.31,1.2-1.42,1.94-2.5,2.52Zm-13.62-2.36c.27,.3,.47,.63,.67,.95,.25,.41,.49,.8,.84,1.12,.59,.54,1.82,1.49,3.37,1.68,2.57,.31,5.11-.89,7.92-2.36,.92-.48,1.9-1.06,2.11-1.86,.19-.71-.27-1.4-.79-2.2-.22-.33-.43-.66-.6-.99-.19-.36-.34-.75-.49-1.14-.33-.85-.61-1.59-1.26-1.93-.74-.39-1.83-.16-2.69,.09-6.62,1.9-8.53,3.77-8.97,4.99-.16,.44-.19,.9-.09,1.37,.02,.1,.02,.2,0,.29Z"></path><path class="cls-5" d="M153.97,165.1s-.04,.02-.06,.03l-3.96,1.66c-.32,.13-.68-.02-.82-.33-.13-.32,0-.68,.33-.82l3.96-1.66c.32-.13,.68,.02,.82,.33,.13,.3,0,.64-.28,.79Z"></path><path class="cls-2" d="M346.77,142.71s-.09,.03-.14,.04c-9.53,2.15-18.75,5.55-27.4,10.11-.35,.18-.79,.05-.98-.3-.19-.36-.05-.8,.31-.98,8.76-4.62,18.1-8.06,27.76-10.24,.39-.09,.78,.16,.87,.55,.08,.34-.1,.69-.41,.82Z"></path><path class="cls-2" d="M317.46,157.95c-.23,.1-.51,.08-.73-.08-.32-.24-.39-.69-.15-1.02,2.21-2.99,2.75-6.68,2.8-9.25,.08-3.36-.54-6.75-1.15-10.03-.07-.39,.18-.77,.58-.85,.4-.07,.77,.19,.85,.58,.61,3.35,1.25,6.82,1.17,10.33-.09,3.99-1.16,7.47-3.09,10.08-.08,.11-.18,.18-.29,.23Z"></path><path class="cls-3" d="M95.67,244.73c-20.46,15.55-35.07,38.63-40.36,63.78,9.98-.2,19.96-.39,29.94-.59,.36-18.73,10.54-36.35,24.56-48.78,14.02-12.43,31.59-20.18,49.48-25.75,5.05-1.57,14.28-5.74,6.92-10.05-5.36-3.14-17.81,0-23.49,.99-16.99,2.96-33.3,9.95-47.04,20.39Z"></path><path class="cls-4" d="M82.57,287.4c5.08-.7,10.31,1.67,13.73,5.5s5.17,8.93,5.63,14.05c.37,4.1-.72,9.17-4.65,10.4-2.16,.68-4.56-.11-6.35-1.49s-3.09-3.29-4.35-5.16c-3.46,5.16-8.73,9.09-14.67,10.92-3.66,1.13-8.03,1.35-10.95-1.14-3.13-2.67-3.38-7.62-1.71-11.38,3.16-7.08,15.64-20.64,23.32-21.7Z"></path><path class="cls-2" d="M88.1,309.34c-.19,0-.36-.1-.45-.28-3.03-6.22-10.42-9.85-17.2-8.46-.27,.06-.53-.12-.59-.39-.06-.27,.12-.53,.39-.59,7.2-1.48,15.07,2.39,18.3,9,.12,.25,.02,.55-.23,.67-.07,.03-.15,.05-.22,.05Z"></path></g><g id="planets"><path class="cls-1" d="M297.28,26.98c-16.59,10.31-24.7,32.5-18.67,51.07,6.03,18.58,25.63,31.77,45.11,30.37,19.48-1.4,36.99-17.27,40.29-36.51,3.21-18.67-6.57-33.51-20.01-45.14-12.94-11.2-32.55-8.6-46.73,.22Z"></path><path class="cls-3" d="M249.12,110.73c-3.52,4.68,1.15,11.09,6.72,9.27,3.12-1.02,6.19-2.49,9.06-3.98,46.6-24.08,90-53.84,133-83.88,5.3-3.7,10.97-8.13,14.09-13.54,2.28-3.95-1.17-8.76-5.68-8.12-16.74,2.37-32.81,9.51-45.72,20.44,7.83-4.88,16.5-8.4,25.51-10.38,2.45-.54,3.91,2.67,1.89,4.16-39.96,29.6-81.7,56.81-124.92,81.41-8.18,2.48,3.02-10.46,8.12-14.09-7.78,1.86-15.93,10.5-22.08,18.69Z"></path><path class="cls-7" d="M446.31,137.63c-.01,1.64,.61,3.36,1.95,4.29,1.81,1.26,4.35,.78,6.32,1.77,1.98,1,3.08,3.33,5.13,4.19,1.64,.69,3.59,.25,5.05-.76,1.46-1.01,2.51-2.51,3.36-4.07,1.4-2.54,2.41-5.54,1.61-8.33-.74-2.61-2.92-4.85-1.9-7.71-3.63-1.07-9.26-3.55-13.18-2.49-4.86,1.31-8.32,8.46-8.35,13.11Z"></path><path class="cls-7" d="M188.59,52.2c.43,1.22,1.37,2.21,1.73,3.45,.59,2.06-.49,4.45,.54,6.33,.97,1.77,3.37,2.19,5.36,1.83,1.99-.36,3.87-1.28,5.88-1.4,1.3-.08,2.6,.18,3.9,.03,3.66-.43,6.22-4.15,6.61-7.81,.39-3.66-.86-7.28-2.1-10.75-.65-1.81-1.36-3.73-2.88-4.91-.86-.67-1.91-1.04-2.99-1.2-5.45-.79-18.37,7.91-16.04,14.43Z"></path><path class="cls-7" d="M374.75,358.06c.5,1.7,1.03,3.46,2.17,4.81,2.28,2.69,6.25,3.01,9.77,3.13,2.27,.08,4.72,.1,6.56-1.22,1.97-1.42,2.7-4.03,2.81-6.46,.2-4.28-.27-7.86-4.43-9.17-2.69-.84-6.09-1.72-8.92-2.01-6.59-.67-9.72,4.96-7.97,10.92Z"></path><path class="cls-7" d="M59.31,223.41c-3.11-.58-6.64,1.15-7.61,4.16-.97,3.01,1.36,6.76,4.52,6.78,.79,0,1.61-.19,2.35,.08,.58,.21,1.03,.69,1.61,.89,1.16,.4,2.41-.39,3.16-1.36,1.28-1.64,1.72-3.9,1.16-5.9-.56-2-2.12-3.7-4.06-4.44"></path><path class="cls-7" d="M404.45,87.95c-.36,1.28-.5,2.66-.05,3.91,.46,1.24,1.63,2.29,2.95,2.27,2.1-.02,3.68-2.5,5.76-2.21,.9,.12,1.65,.76,2.5,1.07,1.89,.68,4.11-.45,5.05-2.21s.75-3.98-.08-5.8c-4.24-9.3-13.83-5.24-16.14,2.98Z"></path><path class="cls-7" d="M41.12,181.66c-.83,.28-1.72,.41-2.51,.79-2.04,.96-3.11,3.45-2.72,5.67,.39,2.22,2.05,4.09,4.08,5.07,2.03,.98,4.38,1.16,6.61,.86,6.01-.81,13.43-7.02,9.81-13.72-3.67-6.8-10.71-.17-15.27,1.33Z"></path><path class="cls-7" d="M403.95,306.35c-.48,2.18-.14,4.6-1.25,6.54-1.44,2.52-4.7,3.23-7.06,4.92-3.49,2.5-4.86,7.45-3.47,11.51,1.39,4.06,5.25,7.07,9.49,7.78,4.24,.7,8.7-.77,11.95-3.58,1.99-1.72,3.54-3.89,5.48-5.67,2.44-2.24,5.53-3.93,7.12-6.84,1.55-2.84,1.33-6.38,.17-9.4-1.59-4.15-5.81-11.46-10.55-12.57-4.65-1.09-10.85,2.7-11.86,7.31Z"></path><path class="cls-7" d="M429.66,333.87c-2.77-.2-6.14,.69-6.89,3.36-.55,1.97,.6,3.97,1.8,5.63,.91,1.26,1.97,2.54,3.45,2.99,2.6,.78,5.36-1.63,5.71-4.32,.35-2.69-1.13-5.33-3.06-7.24"></path><path class="cls-7" d="M193.29,103.39c-1.81,.76-3.68,1.56-4.98,3.03-1.29,1.47-1.82,3.82-.65,5.39,.61,.82,1.56,1.3,2.48,1.76,2.11,1.04,4.49,2.11,6.74,1.42,2.36-.73,3.78-3.28,3.97-5.74s-.61-4.89-1.39-7.23c-2.14-.54-4.54,.05-6.18,1.53"></path><path class="cls-7" d="M239.55,153.44c-1.13-.71-2.8,.07-3.22,1.34-.42,1.27,.25,2.73,1.34,3.51s2.51,.97,3.84,.84c1.72-.17,3.51-.95,4.29-2.49s.04-3.82-1.66-4.14c-.97,.03-1.94,.05-2.91,.08"></path><g><path class="cls-4" d="M379.5,199.64c-7.92,9.93-14.65,22.37-12.12,34.82,1.62,7.97,7.03,14.91,13.95,19.19,6.92,4.28,15.22,6.02,23.34,5.8,13.08-.36,26.57-6.36,33.23-17.63,6.19-10.46,5.57-24.14-.02-34.93-13.54-26.12-39.85-30.48-58.38-7.24Z"></path><path class="cls-1" d="M407.62,189.93c1.26-.26,2.64,.11,3.47,1.09,1.23,1.45,.66,2.7,.12,3.86l-2.99,6.4c-.78,1.66,1.33,3.16,2.65,1.88l6.38-6.21h0c2.73-1.43,3.19,1.15,3.13,2.29-.05,.87,1.29-.05,2.67-.71,.59-.28,1.29-.04,1.56,.55h0c.39,.84,.41,1.82,0,2.64-.46,.92-.31,1,.93,1.69,.17,.1,.34,.21,.5,.33,1.09,.88,1.56,2.45,1.16,3.79-.44,1.45-1.75,3.09-.74,4.22,.64,.72,1.81,.57,2.69,.17,1.24-.58,2.39-1.56,3.96-.76,1.08,.56,1.67,1.78,1.63,2.99-.09,2.64-2.08,4.37-3.65,6.27-.87,1.05-1.68,2.37-1.41,3.71s2.19,2.25,3.06,1.2c.31-.38,.44-.94,.87-1.18,.61-.35,1.42,.24,1.55,.93,.13,.69-.19,1.39-.5,2.02-5.59,11.11-14.32,21.22-25.99,25.5-1.48,.54-3.06,.99-4.62,.73-1.55-.26-3.06-1.43-3.23-3-.15-1.38,.71-2.65,1.53-3.77,4.69-6.4,9.37-12.81,14.06-19.21,.84-1.15,1.62-2.95,.48-3.82-1.04-.79-2.48,.17-3.42,1.08-4.11,3.98-8.21,7.97-12.32,11.95-2.91,2.82-5.96,5.73-9.82,7-2.57,.84-5.66,.78-7.66-1.04-2-1.82-1.99-5.68,.45-6.85-1.38,.28-2.8,.56-4.19,.36-1.39-.21-2.79-1-3.31-2.31-.57-1.42,0-3.02,.62-4.42,3.76-8.53,9.55-16.15,16.74-22.08,3.69-5.41-5,1.59-8.37,4.58l-9.24,8.59c-1.05,.98-2.61-.3-1.89-1.54,.64-1.12,1.58-2.24,2.23-3.35,7.27-12.39,25.64-31.53,24.81-24.85-2.9,3.99-4.87,3.9-6.19,7.5-.29,.81-.2,1.71,.27,2.42,.51,.76,2.56,.02,2.96-.43,1.29-1.46,1.04-1.3,2.08-2.95,1.8-2.84,3.22-6.49,7-7.27Z"></path></g></g></svg>