<svg version="1.1" id="Layer_1" xmlns="http://www.w3.org/2000/svg" xmlns:xlink="http://www.w3.org/1999/xlink" x="0px" y="0px" viewBox="0 0 500 500" style="width: 166px;" xml:space="preserve" data-imageid="startup-2-73" imageName="Startup 2" class="illustrations_image">
<style type="text/css">
	.st0_startup-2-73{fill:#D1D3D4;}
	.st1_startup-2-73{fill:#FFFFFF;}
	.st2_startup-2-73{fill:#231F20;}
	.st3_startup-2-73{fill:#68E1FD;}
</style>
<g id="Shadow_startup-2-73">
	<ellipse class="st0_startup-2-73" cx="265.5" cy="391.5" rx="80.4" ry="7.7"/>
</g>
<g id="Rocket_startup-2-73">
	<polygon class="st1_startup-2-73" points="240.5,366.7 290.5,366.7 296.5,342.7 234.5,342.7 &#9;"/>
	<path class="st2_startup-2-73" d="M290.5,367.4h-50c-0.3,0-0.6-0.2-0.7-0.5l-6-24c-0.1-0.2,0-0.4,0.1-0.6c0.1-0.2,0.3-0.3,0.6-0.3h62&#10;&#9;&#9;c0.2,0,0.4,0.1,0.6,0.3c0.1,0.2,0.2,0.4,0.1,0.6l-6,24C291.1,367.2,290.8,367.4,290.5,367.4z M241,366h49l5.7-22.6h-60.3L241,366z"/>
	<path class="st1_startup-2-73" d="M321.6,267.6c0,0,26.2,16.4,35.3,43.7s-11.6,80.1-11.6,80.1l-47.7-51.7L321.6,267.6z"/>
	<path class="st2_startup-2-73" d="M345.3,392.2c-0.2,0-0.4-0.1-0.5-0.2L297,340.2c-0.2-0.2-0.2-0.5-0.1-0.7l24-72.1c0.1-0.4,0.5-0.5,0.9-0.4&#10;&#9;&#9;c0,0,0.1,0,0.1,0c0.3,0.2,26.5,16.8,35.6,44.1c3.8,11.5,3,28.5-2.4,50.7c-2.5,10.1-5.6,20.1-9.3,29.9&#10;&#9;&#9;C345.7,391.9,345.5,392.1,345.3,392.2L345.3,392.2z M298.4,339.6l46.6,50.6c2.8-7.6,19.5-53.9,11.2-78.6&#10;&#9;&#9;c-8.1-24.2-30-39.9-34.3-42.8L298.4,339.6z"/>
	<path class="st1_startup-2-73" d="M208.2,267.6c0,0-26.2,16.4-35.3,43.7s11.6,80.1,11.6,80.1l47.7-51.7L208.2,267.6z"/>
	<path class="st2_startup-2-73" d="M184.5,392.2h-0.1c-0.2,0-0.4-0.2-0.5-0.4c-3.7-9.8-6.8-19.8-9.3-29.9c-5.4-22.2-6.2-39.2-2.4-50.7&#10;&#9;&#9;c9.1-27.2,35.4-43.9,35.6-44.1c0.2-0.1,0.4-0.1,0.6-0.1c0.2,0.1,0.4,0.2,0.4,0.4l24,72.1c0.1,0.2,0,0.5-0.1,0.7L185,392&#10;&#9;&#9;C184.9,392.1,184.7,392.2,184.5,392.2z M207.8,268.7c-4.3,2.9-26.2,18.7-34.3,42.8c-8.2,24.6,8.4,71,11.2,78.6l46.7-50.6&#10;&#9;&#9;L207.8,268.7z"/>
	<path class="st1_startup-2-73" d="M222.6,351.8c-13-31.2-21.2-76.4-21.2-126.7c0-76.2,42.1-115.9,58-128.3c3.6-2.8,8.5-2.8,12.1,0&#10;&#9;&#9;c16,12.3,58,52,58,128.3c0,50.3-8.2,95.5-21.2,126.7c0,0-13,6.6-42.9,6.6S222.6,351.8,222.6,351.8z"/>
	<path class="st2_startup-2-73" d="M265.5,359c-29.7,0-42.6-6.4-43.2-6.6c-0.2-0.1-0.3-0.2-0.3-0.4c-13.5-32.4-21.3-78.7-21.3-127&#10;&#9;&#9;c0-75.7,40.8-115.3,58.3-128.8c3.8-3,9.2-3,13,0c17.5,13.6,58.3,53.2,58.3,128.8c0,48.3-7.8,94.6-21.3,127&#10;&#9;&#9;c-0.1,0.2-0.2,0.3-0.3,0.4C308.1,352.7,295.2,359,265.5,359z M223.2,351.2c1.9,0.9,15.1,6.4,42.3,6.4s40.5-5.5,42.3-6.4&#10;&#9;&#9;c13.4-32.2,21.1-78.2,21.1-126.2c0-75-40.4-114.3-57.8-127.7c-3.3-2.6-7.9-2.6-11.3,0c-17.4,13.5-57.8,52.7-57.8,127.7&#10;&#9;&#9;C202.1,273.1,209.8,319,223.2,351.2L223.2,351.2z"/>
	<path class="st1_startup-2-73" d="M271.6,96.8c10.2,7.8,30.9,26.8,44.6,59.1H214.9c13.7-32.3,34.4-51.2,44.6-59.1C263,94,268,94,271.6,96.8z"/>
	<path class="st2_startup-2-73" d="M316.1,156.6H214.9c-0.2,0-0.5-0.1-0.6-0.3c-0.1-0.2-0.2-0.4-0.1-0.7c13.6-32.1,33.9-51,44.8-59.4&#10;&#9;&#9;c3.8-3,9.2-3,13,0l0,0c10.9,8.4,31.2,27.3,44.8,59.4c0.1,0.2,0.1,0.5-0.1,0.7C316.6,156.4,316.4,156.6,316.1,156.6z M215.9,155.2&#10;&#9;&#9;h99.1c-13.5-31.2-33.3-49.6-43.9-57.8l0,0c-3.3-2.6-7.9-2.6-11.3,0C249.2,105.5,229.4,123.9,215.9,155.2L215.9,155.2z"/>
	<path class="st1_startup-2-73" d="M247.3,241.2h31.3l0,0v27.9c0,1.9-1.5,3.4-3.4,3.4h-24.5c-1.9,0-3.4-1.5-3.4-3.4L247.3,241.2L247.3,241.2z"/>
	<path class="st2_startup-2-73" d="M273.9,273.3h-21.8c-3,0-5.5-2.5-5.5-5.5v-26.6c0-0.4,0.3-0.7,0.7-0.7h31.3c0.4,0,0.7,0.3,0.7,0.7c0,0,0,0,0,0&#10;&#9;&#9;v26.6C279.4,270.8,276.9,273.3,273.9,273.3z M248,241.9v25.9c0,2.2,1.8,4.1,4.1,4.1h21.8c2.2,0,4.1-1.8,4.1-4c0,0,0,0,0-0.1v-25.9&#10;&#9;&#9;H248z"/>
	<circle class="st1_startup-2-73" cx="263" cy="212.5" r="39.1"/>
	<path class="st2_startup-2-73" d="M263,252.3c-22,0-39.8-17.8-39.8-39.8c0-22,17.8-39.8,39.8-39.8c22,0,39.8,17.8,39.8,39.8c0,0,0,0,0,0&#10;&#9;&#9;C302.8,234.5,285,252.3,263,252.3z M263,174.1c-21.2,0-38.4,17.2-38.4,38.4c0,21.2,17.2,38.4,38.4,38.4c21.2,0,38.4-17.2,38.4-38.4&#10;&#9;&#9;c0,0,0,0,0,0C301.4,191.3,284.2,174.2,263,174.1z"/>
	<circle class="st2_startup-2-73" cx="263" cy="212.5" r="24.1"/>
	<path class="st2_startup-2-73" d="M263,237.4c-13.7,0-24.8-11.1-24.8-24.8s11.1-24.8,24.8-24.8c13.7,0,24.8,11.1,24.8,24.8&#10;&#9;&#9;C287.8,226.2,276.7,237.3,263,237.4z M263,189.1c-12.9,0-23.4,10.5-23.4,23.4c0,12.9,10.5,23.4,23.4,23.4&#10;&#9;&#9;c12.9,0,23.4-10.5,23.4-23.4c0,0,0,0,0,0C286.4,199.6,275.9,189.1,263,189.1L263,189.1z"/>
	<path class="st1_startup-2-73" d="M243.9,211h-0.1c-0.4-0.1-0.6-0.4-0.6-0.8c2.7-18.6,19.7-17.6,19.9-17.6c0.4,0,0.7,0.3,0.7,0.7&#10;&#9;&#9;c0,0.4-0.3,0.7-0.7,0.7c-0.6-0.1-15.9-0.8-18.4,16.4C244.5,210.8,244.2,211,243.9,211z"/>
	<path class="st1_startup-2-73" d="M271.5,196.3c-0.2,0-0.3,0-0.4-0.1c-1.1-0.8-2.3-1.3-3.6-1.5c-0.4-0.1-0.7-0.4-0.6-0.8&#10;&#9;&#9;c0.1-0.4,0.4-0.6,0.8-0.6c1.6,0.2,3,0.8,4.3,1.8c0.3,0.2,0.4,0.7,0.1,1C271.9,196.2,271.7,196.3,271.5,196.3z"/>
	<path class="st2_startup-2-73" d="M227.4,340.9c-0.3,0-0.6-0.2-0.7-0.5c-6.8-21.5-12.3-43.5-16.4-65.6c-0.1-0.4,0.2-0.7,0.6-0.8c0,0,0,0,0,0&#10;&#9;&#9;c0.4-0.1,0.7,0.2,0.8,0.6c4.1,22.1,9.6,44,16.4,65.5c0.1,0.4-0.1,0.8-0.4,0.9C227.5,340.9,227.5,340.9,227.4,340.9z"/>
	<path class="st2_startup-2-73" d="M278.7,264.8L278.7,264.8c-11.1-0.2-29.1-0.5-30.9-0.1c-0.4,0.2-0.8,0-1-0.3c0-0.1-0.1-0.2-0.1-0.3&#10;&#9;&#9;c0-0.2,0.1-0.4,0.2-0.5c0.3-0.3,0.8-0.8,31.8-0.2c0.4,0,0.7,0.3,0.7,0.7C279.4,264.5,279.1,264.8,278.7,264.8L278.7,264.8z"/>
	<path class="st2_startup-2-73" d="M278.7,257.8L278.7,257.8c-11.1-0.2-29.1-0.5-30.9-0.1c-0.4,0.2-0.8,0.1-1-0.3c0-0.1-0.1-0.2-0.1-0.3&#10;&#9;&#9;c0-0.2,0.1-0.4,0.2-0.5c0.3-0.3,0.8-0.8,31.8-0.2c0.4,0,0.7,0.3,0.7,0.7c0,0,0,0,0,0C279.4,257.4,279,257.8,278.7,257.8&#10;&#9;&#9;C278.7,257.8,278.7,257.8,278.7,257.8z"/>
	<path class="st2_startup-2-73" d="M250.3,272.2h24.8l0,0v1.5c0,2.1-1.7,3.8-3.8,3.8h-17.3c-2.1,0-3.8-1.7-3.8-3.8L250.3,272.2L250.3,272.2&#10;&#9;&#9;L250.3,272.2z"/>
	<path class="st2_startup-2-73" d="M269.9,278.2h-14.3c-3.3,0-6-2.7-6-6c0-0.4,0.3-0.7,0.7-0.7c0,0,0,0,0,0h24.8c0.4,0,0.7,0.3,0.7,0.7v0&#10;&#9;&#9;C275.8,275.5,273.2,278.2,269.9,278.2z M251.1,272.9c0.3,2.2,2.3,3.9,4.5,3.9h14.3c2.3,0,4.2-1.7,4.5-3.9H251.1z"/>
</g>
<g id="Character_Female_startup-2-73">
	<path class="st1_startup-2-73" d="M86.3,344.4c1.6,2.9,4.2,5.2,7.3,6.5c2.6,1.1,5.5,0.8,8.3,1.4c7.8,1.5,15.6,0.5,23.1-1.7&#10;&#9;&#9;c7.7-2.2,15.7-5.9,19.5-13c3-5.7,2.9-12.6-0.4-18.1c-1.2-2-2.8-3.8-4.1-5.7c-1.9-3.2-3.4-6.6-4.4-10.2c-2-6.4-3.6-13.4-7-19.2&#10;&#9;&#9;c-1.5-2.2-3.8-3.8-6.4-4.3c-0.8-0.2-8.2,0.1-7.8,0.6c-1.5-2-4.8-1.4-7-0.3c-6.6,3.3-11.6,9.1-13.9,16.1c-2,6.1-1.9,12.7-3.4,19&#10;&#9;&#9;c-1.2,4.9-3.3,9.5-4.6,14.3S83.9,340,86.3,344.4z"/>
	<path class="st2_startup-2-73" d="M109.4,353.7c-2.6,0-5.2-0.2-7.7-0.8c-1-0.2-2.1-0.3-3.1-0.4c-1.8,0-3.6-0.4-5.3-1c-3.2-1.4-5.9-3.8-7.6-6.8&#10;&#9;&#9;c-2.2-4-2.5-9.1-0.9-15.2c0.6-2.3,1.4-4.6,2.2-6.8c0.9-2.5,1.7-5,2.3-7.5c0.6-2.7,1-5.4,1.3-8.1c0.3-3.7,1-7.4,2.1-10.9&#10;&#9;&#9;c2.4-7.2,7.5-13.1,14.3-16.5c2.4-1.2,5.7-1.8,7.5,0c2.2-0.6,7.8-0.4,7.8-0.4c3.2,0.8,5.5,2.4,6.8,4.6c2.7,4.5,4.2,9.8,5.7,14.9&#10;&#9;&#9;c0.4,1.5,0.9,3,1.4,4.5c1,3.5,2.5,6.9,4.4,10.1c0.6,0.9,1.2,1.7,1.8,2.5c0.8,1,1.6,2.1,2.3,3.3c3.4,5.8,3.6,12.9,0.4,18.8&#10;&#9;&#9;c-3.3,6-9.8,10.4-20,13.3C120.1,352.8,114.7,353.6,109.4,353.7z M111.3,280c-1.3,0.1-2.5,0.4-3.7,1c-6.4,3.2-11.3,8.9-13.6,15.7&#10;&#9;&#9;c-1,3.5-1.7,7.1-2,10.7c-0.3,2.8-0.7,5.5-1.3,8.3c-0.7,2.6-1.5,5.1-2.4,7.6c-0.8,2.2-1.6,4.5-2.2,6.7c-1,3.9-1.7,9.6,0.8,14.2l0,0&#10;&#9;&#9;c1.6,2.8,4,5,7,6.2c1.6,0.6,3.2,0.9,4.9,0.9c1.1,0.1,2.2,0.2,3.2,0.4c6.7,1.4,14.2,0.8,22.8-1.7c9.8-2.8,16-7,19.1-12.6&#10;&#9;&#9;c2.9-5.5,2.8-12.1-0.4-17.4c-0.7-1.1-1.4-2.1-2.2-3.1c-0.6-0.8-1.3-1.7-1.9-2.6c-2-3.2-3.5-6.8-4.5-10.4c-0.5-1.5-0.9-3-1.4-4.5&#10;&#9;&#9;c-1.5-5-3-10.2-5.6-14.5c-1.1-1.9-3.1-3.2-6-4c-2.4-0.1-4.8,0-7.2,0.4l-0.1,0.1c-0.3,0.2-0.7,0.2-1-0.1c0,0,0,0,0,0&#10;&#9;&#9;C113.2,280.3,112.2,279.9,111.3,280z"/>
	<path class="st1_startup-2-73" d="M147.1,392.6c1.4,0,11.7,1.1,16.5,3.5s5.9,2.6,4.9,5.8s-9.5,4-15.9,2.8c-4.2-0.9-8.2-2.3-11.9-4.3L147.1,392.6&#10;&#9;&#9;z"/>
	<path class="st2_startup-2-73" d="M158.5,405.9c-2,0-4.1-0.2-6.1-0.5c-4.2-0.9-8.3-2.3-12.1-4.4c-0.2-0.1-0.3-0.3-0.3-0.4c0-0.2,0-0.4,0.1-0.5&#10;&#9;&#9;l6.5-7.8c0.1-0.1,0.3-0.2,0.5-0.2c1.5-0.1,11.9,1.1,16.8,3.6l1.1,0.5c3.9,1.9,5.2,2.5,4.1,6C168.3,404.8,163.4,405.9,158.5,405.9z&#10;&#9;&#9; M141.7,400.2c3.5,1.8,7.2,3.1,11,3.9c6.9,1.3,14.4,0.1,15.2-2.4s0.4-2.6-3.5-4.5l-1.1-0.5c-4.4-2.2-13.8-3.4-15.9-3.4L141.7,400.2&#10;&#9;&#9;z"/>
	<path class="st1_startup-2-73" d="M148.5,392.5c1.9,0.5,3.1,2.3,2.8,4.2c-0.4,3.4-7.7,3.6-8.1,3.6S148.5,392.5,148.5,392.5z"/>
	<path class="st2_startup-2-73" d="M143.1,401c-0.2,0-0.5-0.1-0.6-0.4c-0.2-0.4-0.3-0.7,5.4-8.5c0.1-0.2,0.4-0.3,0.7-0.2c2.2,0.5,3.7,2.7,3.3,4.9&#10;&#9;&#9;C151.4,400.6,144.5,401,143.1,401L143.1,401z M148.7,393.3c-1.8,2.4-3.6,5-4.5,6.3c2.6-0.2,6.1-1,6.4-3&#10;&#9;&#9;C150.9,395.2,150.1,393.8,148.7,393.3L148.7,393.3z"/>
	<path class="st1_startup-2-73" d="M94.7,400.4c-0.2,0.1-2.2,2.7-10.8,3.7s-11.8,2.9-13.7-1.6s-0.6-7.4,3.6-8.7s15.9-2.4,18.2-0.2&#10;&#9;&#9;S94.7,400.4,94.7,400.4z"/>
	<path class="st2_startup-2-73" d="M74.4,406c-2.2,0-3.8-0.7-4.8-3.3s-1.2-4.6-0.4-6.2c0.9-1.7,2.6-2.9,4.5-3.4c4.1-1.3,16.2-2.5,18.8-0.1&#10;&#9;&#9;c2.4,2.3,2.8,7.1,2.8,7.3c0,0.2-0.1,0.5-0.3,0.6c-2.6,2.4-7.5,3.4-11.1,3.8c-1.8,0.2-3.4,0.5-4.8,0.7C77.6,405.7,76,405.9,74.4,406&#10;&#9;&#9;z M85.6,392.9c-3.9,0-7.8,0.5-11.6,1.4c-1.5,0.3-2.9,1.3-3.7,2.6c-0.6,1.3-0.5,3.1,0.4,5.2c1.2,3,2.8,2.8,8.2,2&#10;&#9;&#9;c1.4-0.2,3-0.5,4.9-0.7c3.4-0.4,7.8-1.3,10.2-3.3c-0.1-1-0.7-4.5-2.4-6.1C90.8,393.2,88.4,392.9,85.6,392.9z"/>
	<path class="st1_startup-2-73" d="M97.4,398.6c0,0-3.9,3.3-6.5,2.9s-6.2-1.8-4.8-4.6s10.8-4.5,10.8-4.5L97.4,398.6z"/>
	<path class="st2_startup-2-73" d="M91.4,402.1c-0.2,0-0.3,0-0.5,0c-1-0.1-4.3-0.8-5.3-2.8c-0.4-0.9-0.4-1.9,0.1-2.8c1.6-3,10.2-4.7,11.2-4.8&#10;&#9;&#9;c0.2,0,0.4,0,0.5,0.1c0.1,0.1,0.2,0.3,0.2,0.5l0.5,6.2c0,0.2-0.1,0.4-0.2,0.5C97.7,399.2,94.2,402.1,91.4,402.1z M96.4,393.1&#10;&#9;&#9;c-2.9,0.6-8.6,2.1-9.6,4c-0.3,0.5-0.3,1.1-0.1,1.6c0.6,1.2,2.7,1.9,4.4,2.1s4.5-1.6,5.8-2.5L96.4,393.1z"/>
	<path class="st2_startup-2-73" d="M144.3,371.2c0,0-4.1,16-19.1,19.1s-22.8,2.2-28.1-7.9s-1.8-16.3-1.8-16.3l47.4-0.9L144.3,371.2z"/>
	<path class="st2_startup-2-73" d="M112.8,392.6c-7.4,0-12.5-2.6-16.3-9.8c-5.4-10.4-1.9-16.8-1.8-17c0.1-0.2,0.3-0.4,0.6-0.4l47.4-0.9&#10;&#9;&#9;c0.3,0,0.6,0.2,0.7,0.5l1.6,6c0,0.1,0,0.2,0,0.4c0,0.2-4.4,16.5-19.7,19.6C121.2,391.9,117,392.5,112.8,392.6z M95.8,366.8&#10;&#9;&#9;c-0.6,1.4-2.4,7,2,15.3c5.3,10.1,13,10.5,27.4,7.5c13.6-2.8,18-16.7,18.5-18.4l-1.4-5.3L95.8,366.8z"/>
	<path class="st3_startup-2-73 targetColor" d="M91.7,371.3c0,0-7.8-25.1-6.7-40.8s11.3-16.9,14.8-17.2s22.4-3.2,29.5,5.1s19.5,47.3,19.5,47.3L91.7,371.3z" style="fill: rgb(0, 0, 0);"/>
	<path class="st1_startup-2-73" d="M119.8,313.4l-1.2,8.4c-1.7,2.6-5.1,3.5-7.9,2.1c-5.3-2.2-5.4-6.2-5.4-6.2l2.5-15.5c3.9-4,6.7-9.1,7.9-14.6&#10;&#9;&#9;c0,0,4.7,8.2,11.5,10c-0.2,3.7-0.8,7.4-1.7,11C124.3,312.6,119.8,313.3,119.8,313.4z"/>
	<path class="st2_startup-2-73" d="M113.5,325.2c-1.1,0-2.1-0.2-3.1-0.7c-5.7-2.4-5.8-6.7-5.8-6.9L107,302c0-0.2,0.1-0.3,0.2-0.4&#10;&#9;&#9;c3.8-3.9,6.5-8.8,7.8-14.2c0.1-0.4,0.5-0.6,0.8-0.5c0.2,0,0.3,0.2,0.4,0.3c0,0.1,4.6,7.9,11,9.7c0.3,0.1,0.5,0.4,0.5,0.7&#10;&#9;&#9;c-0.3,3.8-0.8,7.5-1.7,11.1c-0.8,2.6-3,4.6-5.7,5.2l-1.2,7.9c0,0.1-0.1,0.2-0.1,0.3C117.9,324,115.8,325.2,113.5,325.2z&#10;&#9;&#9; M108.4,302.5l-2.5,15.3c0,0,0.2,3.5,5,5.5c4.3,1.8,6.6-1.1,7-1.8l1.2-8.2c0-0.2,0.2-0.4,0.3-0.5c0.1,0,0.2-0.1,0.3-0.1&#10;&#9;&#9;c1.5-0.4,4.2-1.4,5.1-4.3c0.8-3.4,1.4-6.8,1.6-10.3c-5.1-1.6-8.8-6.4-10.4-8.8C114.6,294.2,112,298.8,108.4,302.5z M118.5,321.8&#10;&#9;&#9;L118.5,321.8z"/>
	<path class="st1_startup-2-73" d="M111,302.4c-0.1-0.8-0.4-1.5-0.9-2.1c-0.5-0.5-1.1-0.9-1.8-1.2c-0.3-0.2-0.7-0.3-1.1-0.4&#10;&#9;&#9;c-0.3,0-0.6,0.1-0.8,0.2c-0.6,0.2-1.2,0.6-1.6,1.2c-0.2,0.5-0.3,1-0.3,1.6c0,0.6,0,1.2,0.2,1.7c0.6,2.4,3,3.8,5.3,3.2&#10;&#9;&#9;c0,0,0,0,0.1,0"/>
	<path class="st2_startup-2-73" d="M108.9,307.3c-0.9,0-1.8-0.2-2.6-0.7c-1.2-0.7-2-1.8-2.3-3.2c-0.1-0.6-0.2-1.3-0.2-1.9c0-0.7,0.1-1.3,0.4-1.9&#10;&#9;&#9;c0.4-0.7,1.1-1.2,1.9-1.5c0.3-0.1,0.7-0.2,1.1-0.2c0.5,0,1,0.2,1.4,0.5c0.7,0.4,1.4,0.8,2,1.4c0.6,0.7,1,1.6,1.1,2.5&#10;&#9;&#9;c0,0.4-0.3,0.7-0.7,0.7c-0.3,0-0.6-0.2-0.7-0.6c-0.1-0.6-0.3-1.2-0.7-1.7c-0.5-0.5-1-0.8-1.6-1.1c-0.3-0.2-0.5-0.3-0.8-0.3&#10;&#9;&#9;c-0.2,0-0.4,0-0.6,0.1c-0.5,0.1-0.9,0.4-1.2,0.9c-0.2,0.4-0.3,0.8-0.2,1.2c0,0.5,0,1,0.1,1.5c0.5,2,2.5,3.2,4.5,2.7c0,0,0,0,0,0&#10;&#9;&#9;c0.4-0.1,0.7,0.2,0.8,0.5c0.1,0.3-0.1,0.7-0.5,0.8C109.9,307.2,109.4,307.3,108.9,307.3z"/>
	<path class="st1_startup-2-73" d="M118.6,300c0,0,2.4,4.7,1.6,5.4s-2.6-0.1-2.6-0.1"/>
	<path class="st2_startup-2-73" d="M119.2,306.3c-0.7,0-1.3-0.2-1.9-0.4c-0.4-0.1-0.5-0.5-0.4-0.9c0.1-0.4,0.5-0.5,0.9-0.4&#10;&#9;&#9;c0.6,0.3,1.2,0.3,1.9,0.2c-0.3-1.6-0.9-3.1-1.7-4.5c-0.2-0.3,0-0.8,0.3-0.9c0.3-0.2,0.8,0,0.9,0.3c0,0,0,0,0,0&#10;&#9;&#9;c2.6,5.2,1.7,5.9,1.4,6.2C120.2,306.2,119.7,306.3,119.2,306.3z"/>
	
		<ellipse transform="matrix(8.124277e-02 -0.9967 0.9967 8.124277e-02 -192.28 389.1093)" class="st2_startup-2-73" cx="114.9" cy="298.9" rx="1" ry="0.7"/>
	
		<ellipse transform="matrix(7.428258e-02 -0.9972 0.9972 7.428258e-02 -185.7451 399.6555)" class="st2_startup-2-73" cx="122.4" cy="299.9" rx="1" ry="0.7"/>
	<path class="st2_startup-2-73" d="M118,310c-1,0-2-0.2-2.8-0.6c-1.7-1-2.8-2.7-3-4.6c-0.1-0.4,0.2-0.7,0.5-0.8c0,0,0,0,0,0&#10;&#9;&#9;c0.4-0.1,0.7,0.2,0.8,0.6c0.1,1.5,0.9,2.8,2.2,3.6c2.4,1.2,5.8-0.3,5.8-0.3c0.4-0.2,0.8,0,0.9,0.3s0,0.8-0.3,0.9&#10;&#9;&#9;C120.8,309.7,119.4,310,118,310z"/>
	<path class="st2_startup-2-73" d="M119.8,313.4c0,0-5.4,0.5-8.2-1.8c0,0,2.4,7.5,7.4,7.5L119.8,313.4z"/>
	<path class="st2_startup-2-73" d="M118.9,319.8c-5.4,0-7.9-7.7-8-8c-0.1-0.3,0-0.6,0.3-0.8c0.2-0.2,0.6-0.2,0.8,0c2.6,2,7.7,1.6,7.7,1.6&#10;&#9;&#9;c0.4,0,0.7,0.3,0.8,0.6c0,0.1,0,0.1,0,0.2l-0.8,5.8C119.6,319.6,119.3,319.9,118.9,319.8z M112.9,313.2c0.9,2,2.7,4.8,5.4,5.2&#10;&#9;&#9;l0.6-4.3C116.9,314.2,114.9,313.9,112.9,313.2L112.9,313.2z"/>
	<path class="st3_startup-2-73 targetColor" d="M89.8,317.4c-4.3,0.9-17.6,43.3-11.5,47.8c9.5,7,38.4-2.6,38.4-2.6l-2.9-12.5c0,0-20.9,1-21.3-3.3&#10;&#9;&#9;s11.7-24.4,10-27.3S89.8,317.4,89.8,317.4z" style="fill: rgb(0, 0, 0);"/>
	<path class="st1_startup-2-73" d="M111.7,354.3c3.5,0.1,7-0.1,10.4-0.7c2.5-0.6,5.1-1,7.8-1c3.5,0.1,6.9,0.8,10.1,2.1c0.1,0,0.2,0.1,0.3,0.2&#10;&#9;&#9;c0.3,0.4-0.4,0.9-0.9,0.9c-1.4,0.1-2.8-0.1-4.1-0.4c3.3,1.2,6.5,2.7,9.4,4.7c0.3,0.2,0.7,0.6,0.5,1s-0.8,0.3-1.2,0.1l-7.5-3.3&#10;&#9;&#9;c2,0.7,3.8,1.8,5.4,3.1c0.2,0.2,0.5,0.5,0.4,0.7c-0.1,0.5-0.9,0.4-1.3,0.2c-2.3-1.1-4.5-2.4-6.6-3.8l4.7,3.5&#10;&#9;&#9;c0.1,0.4-0.3,0.7-0.7,0.7c-0.4,0-0.8-0.1-1.1-0.4l-5.2-2.9l3.2,2.2c0.5,0.4,1.1,0.9,0.9,1.5s-1.3,0.5-1.9,0.2&#10;&#9;&#9;c-2.7-1.1-5.5-1.9-8.3-2.4c-1-0.3-2-0.5-3.1-0.5c-1.6,0.2-3.2,0.6-4.7,1.1c-2.3,0.6-4.6,1.2-6.9,1.7"/>
	<path class="st2_startup-2-73" d="M135.2,363.8c-0.5,0-0.9-0.1-1.4-0.3c-2.6-1.1-5.4-1.9-8.2-2.3c-0.4-0.1-0.7-0.2-1.1-0.2&#10;&#9;&#9;c-0.6-0.2-1.2-0.3-1.9-0.3c-1,0.1-2.1,0.3-3.1,0.7c-0.5,0.1-1,0.3-1.5,0.4c-2.3,0.6-4.6,1.1-6.9,1.7c-0.3,0.1-0.7-0.1-0.8-0.5&#10;&#9;&#9;c0,0,0,0,0,0c-0.1-0.3,0.1-0.7,0.5-0.8c0,0,0,0,0,0c2.3-0.6,4.6-1.2,7-1.7c0.4-0.1,0.9-0.3,1.4-0.4c1.1-0.4,2.2-0.6,3.4-0.7&#10;&#9;&#9;c0.8,0,1.5,0.1,2.2,0.3c0.3,0.1,0.7,0.2,1,0.2c2.9,0.5,5.7,1.3,8.4,2.4c0.3,0.2,0.7,0.2,1.1,0.2c0.1-0.1-0.1-0.4-0.6-0.7l-3.2-2.2&#10;&#9;&#9;c-0.3-0.2-0.4-0.6-0.2-0.9c0.2-0.3,0.6-0.4,0.9-0.2l5.2,2.9l0.4,0.2l-4-3c-0.3-0.2-0.4-0.6-0.1-0.9c0.2-0.3,0.6-0.4,0.9-0.2&#10;&#9;&#9;c0,0,0,0,0,0c2,1.4,4.2,2.7,6.5,3.8l0.1,0c-1.1-0.9-2.2-1.6-3.4-2.2l-1.7-0.7c-0.3-0.1-0.5-0.5-0.3-0.8c0.1-0.3,0.5-0.5,0.8-0.4&#10;&#9;&#9;c0.6,0.2,1.2,0.5,1.7,0.8l5.8,2.5l0.1,0l0,0c-2.8-2-5.9-3.5-9.2-4.6c-0.3-0.1-0.5-0.5-0.4-0.8c0.1-0.3,0.4-0.5,0.8-0.4&#10;&#9;&#9;c1.3,0.3,2.6,0.5,3.9,0.4h0.1c-3-1.2-6.3-1.8-9.5-1.9c-2.2,0-4.5,0.3-6.7,0.8l-1,0.2c-3.5,0.6-7,0.9-10.5,0.7&#10;&#9;&#9;c-0.4,0-0.6-0.3-0.6-0.6c0-0.4,0.3-0.6,0.6-0.6c3.4,0.1,6.9-0.1,10.2-0.7l1-0.2c2.3-0.6,4.6-0.9,6.9-0.9c3.5,0.1,7,0.8,10.3,2.1&#10;&#9;&#9;c0.2,0.1,0.5,0.2,0.6,0.4c0.2,0.3,0.2,0.7,0.1,1c-0.3,0.5-0.8,0.8-1.4,0.9c1.9,0.9,3.7,2,5.4,3.1c1,0.7,0.9,1.4,0.8,1.7&#10;&#9;&#9;c-0.1,0.3-0.3,0.5-0.6,0.6c-0.5,0.1-1,0.1-1.5-0.1l-0.9-0.4c0,0.2,0,0.3,0,0.5c-0.1,0.3-0.3,0.6-0.6,0.8c-0.5,0.2-1.1,0.2-1.6-0.1&#10;&#9;&#9;l-1-0.5c0,0.1-0.1,0.3-0.2,0.4c-0.2,0.3-0.6,0.5-1,0.5c-0.5,0-1-0.2-1.4-0.4l-0.1,0c0,0.2,0,0.4-0.1,0.5c-0.1,0.3-0.4,0.6-0.7,0.7&#10;&#9;&#9;C135.8,363.8,135.5,363.8,135.2,363.8z"/>
	<path class="st1_startup-2-73" d="M127.1,322c1.2,1.1,4.4,19.5,5.7,28.1"/>
	<path class="st2_startup-2-73" d="M132.8,350.8c-0.3,0-0.6-0.2-0.6-0.5c-1.4-9.6-4.5-26.5-5.5-27.8c-0.3-0.2-0.3-0.6-0.1-0.9&#10;&#9;&#9;c0.2-0.3,0.6-0.3,0.9-0.1c0,0,0.1,0.1,0.1,0.1c1.6,1.5,5.1,23.1,5.9,28.5c0.1,0.3-0.2,0.7-0.5,0.7&#10;&#9;&#9;C132.9,350.8,132.9,350.8,132.8,350.8L132.8,350.8z"/>
	<path class="st2_startup-2-73" d="M101,367.4c-0.4,0-0.7-0.3-0.7-0.7c0-0.3,0.2-0.6,0.5-0.6l9.6-1.9l0.1-10.9l-18.2-1.5c-0.2,0-0.4-0.1-0.5-0.3&#10;&#9;&#9;c-0.1-0.2-0.2-0.4-0.1-0.6l7.6-28.4c0.1-0.4,0.4-0.6,0.8-0.5c0.4,0.1,0.6,0.4,0.5,0.8c0,0,0,0.1,0,0.1l-7.4,27.6l18,1.5&#10;&#9;&#9;c0.4,0,0.6,0.3,0.6,0.7l-0.1,12.2c0,0.3-0.2,0.6-0.6,0.7l-10.1,2L101,367.4z"/>
	<polygon class="st1_startup-2-73" points="157.3,370.3 166.1,346.7 130.2,347.4 122.1,374.3 &#9;"/>
	<path class="st2_startup-2-73" d="M122.1,375c-0.4,0-0.7-0.3-0.7-0.7c0-0.1,0-0.1,0-0.2l8.1-26.9c0.1-0.3,0.4-0.5,0.7-0.5l36-0.7&#10;&#9;&#9;c0.2,0,0.5,0.1,0.6,0.3c0.1,0.2,0.2,0.4,0.1,0.6l-8.8,23.6c-0.1,0.2-0.3,0.4-0.6,0.5L122.1,375L122.1,375z M130.7,348.1l-7.6,25.4&#10;&#9;&#9;l33.7-3.9l8.3-22.2L130.7,348.1z M157.3,370.3L157.3,370.3z"/>
	<path class="st2_startup-2-73" d="M155.4,370.5c0,0,9.8,7.9,6.3,15.2S96,401.3,96,401.3l-2.8-9.5C93.2,391.8,142.1,366.8,155.4,370.5z"/>
	<path class="st2_startup-2-73" d="M96,402c-0.3,0-0.6-0.2-0.7-0.5l-2.8-9.5c-0.1-0.3,0.1-0.7,0.3-0.8c2-1,49.3-25,62.8-21.3&#10;&#9;&#9;c0.1,0,0.2,0.1,0.2,0.1c0.4,0.3,10.1,8.4,6.5,16C158.8,393.4,102.5,401.1,96,402L96,402z M94,392.2l2.5,8.4&#10;&#9;&#9;c24.9-3.4,62.2-10.1,64.6-15.1c3-6.3-5-13.4-6-14.3C142.7,368,99.3,389.5,94,392.2L94,392.2z"/>
	<path class="st2_startup-2-73" d="M89.9,366.9c0,0,48.4,19.6,60.4,24.7l-7,10.8c0,0-44.7-0.9-57.5-12.1S73.9,360.4,89.9,366.9z"/>
	<path class="st2_startup-2-73" d="M143.4,403.1L143.4,403.1c-1.8,0-45.1-1-58-12.3c-8.5-7.4-10.9-17.7-7.8-22.7c2.2-3.6,6.8-4.3,12.6-1.9l0,0&#10;&#9;&#9;c0.5,0.2,48.6,19.6,60.4,24.8c0.2,0.1,0.3,0.2,0.4,0.4c0.1,0.2,0,0.4-0.1,0.6l-7,10.8C143.8,403,143.6,403.1,143.4,403.1z&#10;&#9;&#9; M84,366.2c-2.1-0.1-4.1,0.9-5.2,2.6c-2.8,4.5-0.4,14,7.5,20.9c11.8,10.4,52.3,11.8,56.7,11.9l6.3-9.8c-13-5.5-59.2-24.2-59.7-24.4&#10;&#9;&#9;l0,0C87.9,366.7,86,366.3,84,366.2z"/>
	<path class="st1_startup-2-73" d="M157.5,360.9c0.1,0.3,0.2,0.5,0.4,0.8l0.9,1.4c-0.1-0.5-0.7-0.9-1.2-0.8c-0.1,0-0.1,0-0.2,0.1&#10;&#9;&#9;c-0.5,0.3-0.9,0.9-0.9,1.5c0,0.6,0.2,1.2,0.4,1.8c0.7,1.7,2.2,4.3,4.4,3c1.5-0.9,1.9-4,2.1-5.6c0.4-3.1-0.5-7.1-4.5-6.5&#10;&#9;&#9;c0.1,1.5,0.7,3,1.6,4.2C159.9,360,157.3,359.1,157.5,360.9z"/>
	<path class="st2_startup-2-73" d="M160.1,369.6c-0.3,0-0.6,0-0.8-0.1c-1.6-0.5-2.5-2.5-3-3.6c-0.3-0.6-0.4-1.3-0.5-2c0-0.9,0.5-1.7,1.2-2.1l0,0&#10;&#9;&#9;c-0.2-0.2-0.3-0.5-0.3-0.8l0,0c-0.1-0.6,0.2-1.3,0.8-1.6c0.4-0.2,0.9-0.2,1.3-0.1c-0.4-0.9-0.6-1.8-0.7-2.7c0-0.3,0.2-0.6,0.5-0.7&#10;&#9;&#9;c1.3-0.3,2.7,0.1,3.7,1c1.5,1.5,1.8,4.1,1.5,6.1c-0.2,1.8-0.7,5-2.4,6.1C161.1,369.4,160.6,369.5,160.1,369.6z M157.8,362.9h-0.1&#10;&#9;&#9;c-0.3,0.2-0.5,0.5-0.5,0.9c0,0.5,0.2,1,0.4,1.5c0.3,1.2,1.1,2.2,2.2,2.9c0.4,0.1,0.9,0.1,1.3-0.2c1.2-0.7,1.6-3.8,1.8-5.1&#10;&#9;&#9;c0.2-1.7,0.1-3.9-1.1-5.1c-0.5-0.5-1.3-0.8-2-0.7c0.2,1.2,0.7,2.3,1.4,3.2c0.2,0.3,0.2,0.7-0.1,0.9c-0.2,0.2-0.6,0.2-0.8,0&#10;&#9;&#9;c-0.5-0.4-1.2-0.7-1.9-0.6c-0.1,0-0.1,0.2-0.1,0.3l0,0c0,0.2,0.1,0.3,0.2,0.5l0.5,0.7c0.3,0.2,0.5,0.6,0.6,1c0,0.3-0.1,0.6-0.4,0.7&#10;&#9;&#9;c-0.3,0.1-0.6,0-0.8-0.2l-0.3-0.5H157.8z"/>
	<path class="st1_startup-2-73" d="M143.9,389.8c-0.1,0-0.2,0-0.3,0c-1.1-0.4-26-10.1-31.7-13.5c-0.3-0.2-0.4-0.7-0.2-1c0.2-0.3,0.7-0.4,1-0.2&#10;&#9;&#9;c5.5,3.4,31.2,13.3,31.5,13.4c0.4,0.2,0.5,0.6,0.4,1C144.5,389.6,144.2,389.8,143.9,389.8L143.9,389.8z"/>
</g>
<g id="Ladder_startup-2-73">
	<path class="st2_startup-2-73" d="M416.6,403.7c-0.9,0-1.8-0.6-2-1.5l-68.5-245.8c-0.3-1.1,0.3-2.3,1.5-2.6s2.3,0.3,2.6,1.5L418.6,401&#10;&#9;&#9;c0.3,1.1-0.3,2.3-1.5,2.6c0,0,0,0,0,0C417,403.6,416.8,403.7,416.6,403.7z"/>
	<path class="st2_startup-2-73" d="M367.2,403.7c-0.9,0-1.8-0.6-2-1.5l-68.5-245.8c-0.3-1.1,0.3-2.3,1.5-2.6s2.3,0.3,2.6,1.5L369.2,401&#10;&#9;&#9;c0.3,1.1-0.3,2.3-1.5,2.6c0,0,0,0,0,0C367.6,403.6,367.4,403.7,367.2,403.7z"/>
	<path class="st2_startup-2-73" d="M352.4,176.1h-48.5c-1.2,0-2.1-0.9-2.1-2.1c0-1.2,0.9-2.1,2.1-2.1h48.5c1.2,0,2.1,0.9,2.1,2.1&#10;&#9;&#9;C354.4,175.2,353.5,176.1,352.4,176.1z"/>
	<path class="st2_startup-2-73" d="M359.7,202.5h-48.5c-1.2,0-2.1-0.9-2.1-2.1c0-1.2,0.9-2.1,2.1-2.1c0,0,0,0,0,0h48.5c1.2,0,2.1,0.9,2.1,2.1&#10;&#9;&#9;C361.8,201.5,360.8,202.5,359.7,202.5L359.7,202.5z"/>
	<path class="st2_startup-2-73" d="M367,228.8h-48.5c-1.2,0-2.1-0.9-2.1-2.1c0-1.2,0.9-2.1,2.1-2.1H367c1.2,0,2.1,0.9,2.1,2.1&#10;&#9;&#9;C369.1,227.9,368.2,228.8,367,228.8C367,228.8,367,228.8,367,228.8z"/>
	<path class="st2_startup-2-73" d="M374.4,255.1h-48.5c-1.2,0-2.1-0.9-2.1-2.1c0-1.2,0.9-2.1,2.1-2.1c0,0,0,0,0,0h48.5c1.2,0,2.1,0.9,2.1,2.1&#10;&#9;&#9;C376.5,254.2,375.5,255.1,374.4,255.1L374.4,255.1z"/>
	<path class="st2_startup-2-73" d="M381.7,281.5h-48.5c-1.2,0-2.1-0.9-2.1-2.1s0.9-2.1,2.1-2.1l0,0h48.5c1.2,0,2.1,0.9,2.1,2.1&#10;&#9;&#9;S382.8,281.5,381.7,281.5z"/>
	<path class="st2_startup-2-73" d="M389,307.8h-48.5c-1.2,0-2.1-0.9-2.1-2.1s0.9-2.1,2.1-2.1H389c1.2,0,2.1,0.9,2.1,2.1S390.2,307.8,389,307.8z"/>
	<path class="st2_startup-2-73" d="M396.4,334.2h-48.5c-1.2,0-2.1-0.9-2.1-2.1s0.9-2.1,2.1-2.1h48.5c1.2,0,2.1,0.9,2.1,2.1&#10;&#9;&#9;S397.5,334.2,396.4,334.2z"/>
	<path class="st2_startup-2-73" d="M403.7,360.5h-48.5c-1.2,0-2.1-0.9-2.1-2.1s0.9-2.1,2.1-2.1h48.5c1.2,0,2.1,0.9,2.1,2.1&#10;&#9;&#9;S404.9,360.5,403.7,360.5L403.7,360.5L403.7,360.5z"/>
	<path class="st2_startup-2-73" d="M411,386.9h-48.5c-1.2,0-2.1-0.9-2.1-2.1s0.9-2.1,2.1-2.1H411c1.2,0,2.1,0.9,2.1,2.1S412.2,386.9,411,386.9&#10;&#9;&#9;L411,386.9z"/>
</g>
<g id="Character_Male_startup-2-73">
	<path class="st1_startup-2-73" d="M381.2,186.2c0,0-8.3-11-4.9-18.3c0,0-3.1-1-0.1-4.8s10.4-7.9,19.1-3.7l-2.7,1.4c4.9-1.5,10.3,0.6,12.7,5.2&#10;&#9;&#9;l-3.1,1.1l-1.8,15.2L381.2,186.2z"/>
	<path class="st2_startup-2-73" d="M381.2,186.9c-0.2,0-0.4-0.1-0.5-0.3c-0.3-0.4-8.1-10.9-5.2-18.4c-0.5-0.3-0.9-0.8-1.1-1.4&#10;&#9;&#9;c-0.4-1.1,0.1-2.5,1.3-4c3.1-3.9,10.9-8.2,19.9-3.8c0.2,0.1,0.4,0.3,0.4,0.6c0,0.1,0,0.2-0.1,0.3c4.2,0,8,2.3,10,6&#10;&#9;&#9;c0.1,0.2,0.1,0.4,0,0.6c-0.1,0.2-0.2,0.3-0.4,0.4l-2.7,1l-1.8,14.8c0,0.3-0.2,0.5-0.5,0.6l-19.1,3.8L381.2,186.9z M387.9,158.4&#10;&#9;&#9;c-4.3,0-8.4,1.9-11.2,5.2c-0.9,1.2-1.3,2.2-1.1,2.9c0.2,0.4,0.5,0.8,0.9,0.9c0.2,0.1,0.3,0.2,0.4,0.4c0.1,0.2,0.1,0.4,0,0.5&#10;&#9;&#9;c-2.9,6.2,3.3,15.5,4.6,17.3l18.3-3.5l1.8-14.8c0-0.2,0.2-0.4,0.4-0.5l2.4-0.9c-2.4-3.9-7.2-5.7-11.5-4.3c-0.3,0.1-0.7-0.1-0.8-0.4&#10;&#9;&#9;c-0.1-0.3,0-0.6,0.3-0.7l1.5-0.8C391.9,158.8,389.9,158.4,387.9,158.4z"/>
	<path class="st1_startup-2-73" d="M412.4,319.1l-1.7-0.3c-1-0.2-1.7-1.1-1.6-2.1l5.6-36.6c0.2-1,1.1-1.7,2.1-1.6l1.7,0.3c1,0.2,1.7,1.1,1.6,2.1&#10;&#9;&#9;l-5.6,36.6C414.4,318.6,413.4,319.3,412.4,319.1z"/>
	<path class="st2_startup-2-73" d="M412.1,319.7c-0.2,0-0.3,0-0.5,0h-0.2l0,0c-1.8-0.3-3-1.9-2.7-3.7l5.4-35.1c0.3-1.8,1.9-3,3.7-2.7h0.2&#10;&#9;&#9;c1.8,0.3,3,1.9,2.7,3.7l-5.4,35.1c-0.1,0.8-0.6,1.6-1.3,2.1C413.4,319.4,412.8,319.7,412.1,319.7z M411.5,318.3h0.2&#10;&#9;&#9;c1.1,0.2,2.1-0.6,2.2-1.6l5.4-35.1c0.1-0.5-0.1-1-0.4-1.5c-0.3-0.4-0.8-0.7-1.3-0.8h-0.2c-0.5-0.1-1,0-1.5,0.4&#10;&#9;&#9;c-0.4,0.3-0.7,0.8-0.8,1.3l-5.4,35.1C409.7,317.2,410.5,318.2,411.5,318.3z"/>
	<path class="st1_startup-2-73" d="M416.6,262c0,0-6.4,23.3-3.6,22.2c3.1-1.3,4.8-8.5,4.8-8.5s2.3,3.9,2.3,6s-2.9,9.4-0.6,9.9s8-11.8,7.4-14.6&#10;&#9;&#9;c-0.6-2.3-1.5-4.5-2.5-6.6l1.1-6.5"/>
	<path class="st2_startup-2-73" d="M419.5,292.2h-0.3c-0.4-0.1-0.8-0.3-1-0.7c-0.8-1.2-0.3-3.6,0.5-6.8c0.3-1,0.5-2,0.6-3c-0.2-1.5-0.7-3-1.5-4.3&#10;&#9;&#9;c-0.7,2.3-2.3,6.3-4.7,7.3c-0.3,0.2-0.8,0.1-1-0.1c-1.7-1.5,1.7-14.9,3.8-22.8c0.1-0.3,0.4-0.5,0.8-0.5c0,0,0,0,0,0&#10;&#9;&#9;c0.3,0.1,0.5,0.4,0.5,0.8c-2.5,9.2-4.7,19.3-4.2,21.3c2.2-1.2,3.7-6.1,4.1-7.9c0.1-0.3,0.3-0.4,0.5-0.5c0.3,0,0.5,0.1,0.6,0.3&#10;&#9;&#9;c0.1,0.2,2.4,4.1,2.4,6.4c-0.1,1.1-0.4,2.2-0.7,3.2c-0.5,2-1.2,4.9-0.7,5.8c0,0.1,0.1,0.1,0.2,0.1c0,0,0.3,0,0.9-0.6&#10;&#9;&#9;c2.7-2.8,6.2-11.3,5.8-13.2c-0.6-2.2-1.4-4.4-2.5-6.5c-0.1-0.1-0.1-0.3-0.1-0.4l1.1-6.5c0.1-0.4,0.4-0.6,0.8-0.5s0.6,0.4,0.5,0.8&#10;&#9;&#9;l0,0l-1,6.3c1,2.1,1.9,4.3,2.5,6.6c0.6,2.7-3.5,11.7-6.1,14.4C420.9,291.9,420.3,292.2,419.5,292.2z M413,283.6L413,283.6z"/>
	<path class="st1_startup-2-73" d="M359.8,291.6l5.1,12.6c0,0-14.9,5.8-18.9,6.7s-4.1-1,1.3-6c4.2-3.9,5.8-4.4,5.8-4.4l-2.7-4.9L359.8,291.6z"/>
	<path class="st2_startup-2-73" d="M344.4,311.8c-0.7,0.1-1.4-0.2-1.8-0.8c-0.4-0.8-0.3-2.3,4.2-6.5c1.6-1.6,3.4-3,5.4-4.2l-2.4-4.3&#10;&#9;&#9;c-0.1-0.2-0.1-0.4,0-0.5c0.1-0.2,0.2-0.3,0.4-0.4l9.5-4c0.2-0.1,0.3-0.1,0.5,0c0.2,0.1,0.3,0.2,0.4,0.4l5,12.6&#10;&#9;&#9;c0.1,0.2,0.1,0.3,0,0.5c-0.1,0.2-0.2,0.3-0.4,0.3c-0.6,0.2-15,5.9-19,6.7C345.6,311.7,345,311.7,344.4,311.8z M351.3,295.9l2.4,4.3&#10;&#9;&#9;c0.1,0.2,0.1,0.4,0,0.5c-0.1,0.2-0.2,0.3-0.4,0.4c0,0-1.6,0.6-5.6,4.3c-4.3,4-4,4.9-4,4.9s0.3,0.3,2.1-0.1&#10;&#9;&#9;c3.5-0.7,15.4-5.3,18.2-6.4l-4.6-11.4L351.3,295.9z"/>
	<path class="st1_startup-2-73" d="M384.3,343.7c0.2,2.5,0,5-0.6,7.5c-0.9,3.1-1.8,7.4-1.5,10.1s3.2,5.9,6.1,4.6s4-9.5,3.9-11.7s-0.4-8,0.2-11&#10;&#9;&#9;L384.3,343.7z"/>
	<path class="st2_startup-2-73" d="M387,366.9c-0.7,0-1.4-0.2-2-0.6c-1.8-1.1-3-2.9-3.3-4.9c-0.5-3.5,1-8.8,1.5-10.4c0.5-2.4,0.7-4.8,0.5-7.3&#10;&#9;&#9;c0-0.2,0-0.3,0.2-0.5c0.1-0.1,0.3-0.2,0.4-0.2l8.2-0.5c0.2,0,0.4,0.1,0.5,0.2c0.1,0.1,0.2,0.3,0.1,0.5c-0.6,2.8-0.3,8.3-0.2,10.6&#10;&#9;&#9;v0.2c0.1,1.7-0.8,10.8-4.3,12.4C388.1,366.7,387.6,366.9,387,366.9z M385,344.3c0.1,2.4-0.1,4.8-0.6,7.1c-0.9,3.1-1.8,7.3-1.4,9.9&#10;&#9;&#9;c0.3,1.7,1.2,3.1,2.7,4c0.8,0.5,1.7,0.5,2.5,0.1c2.4-1.1,3.6-8.7,3.5-11.1V354c-0.2-3.4-0.2-6.7,0.1-10.1L385,344.3z"/>
	<path class="st2_startup-2-73" d="M406.8,235.9c-1.5-0.9-35.1,6.4-35.1,6.4s-40.7,7.4-39.7,17.6c1,10.2,17.7,37.7,17.7,37.7l12.5-3.4l-11-26.6&#10;&#9;&#9;h24.9c0,0,8.5,60.7,6.1,78.8l12.2,1.9L406.8,235.9z"/>
	<path class="st2_startup-2-73" d="M394.5,349L394.5,349l-12.3-1.9c-0.3-0.1-0.6-0.4-0.5-0.7c2.2-16.9-5.2-72.1-6-78.1h-23.5l10.7,25.7&#10;&#9;&#9;c0.1,0.2,0.1,0.3,0,0.5c-0.1,0.2-0.2,0.3-0.4,0.3l-12.5,3.4c-0.3,0.1-0.6,0-0.7-0.3c-0.7-1.1-16.7-27.7-17.8-38&#10;&#9;&#9;c-1.1-10.6,38.5-17.9,40.1-18.2c10.2-2.2,34-7.3,35.5-6.4c0.2,0.1,0.3,0.4,0.3,0.6l-12.3,112.5C395,348.7,394.8,349,394.5,349&#10;&#9;&#9;L394.5,349z M383,346l11,1.7l12.2-111.2c-3.4,0-22.4,3.9-34.3,6.5c-11.2,2-40,9-39.2,16.9c1,9.3,15.3,33.6,17.4,37.1l11.4-3.1&#10;&#9;&#9;l-10.8-25.9c-0.1-0.2-0.1-0.4,0.1-0.6c0.1-0.2,0.3-0.3,0.5-0.3l0,0h24.9c0.3,0,0.6,0.2,0.6,0.5C377.1,270,385.1,327.3,383,346&#10;&#9;&#9;L383,346z"/>
	<path class="st3_startup-2-73 targetColor" d="M405.6,267.3l-46.5-23.8c0,0,12.4-41.1,18-47.2s28.7-3,32.1,3S408.7,244.5,405.6,267.3z" style="fill: rgb(0, 0, 0);"/>
	<path class="st1_startup-2-73" d="M384.6,190.1l-0.5,7.9c0,0,0.5,4.5,5.4,3.4c2.9-0.7,5.4-2.6,6.8-5.3c0,0,1.2-19,1.6-24&#10;&#9;&#9;c-3.5-0.4-6.9-1.6-10-3.4c-0.5-0.4-1-0.6-1.5-0.9c-1-0.1-0.9,0.4-1.3,1.2c-0.8,1.5-2,2.7-3.6,3.5c-0.2,0.1-0.4,0.2-0.5,0.4&#10;&#9;&#9;c-0.1,0.1-0.1,0.3-0.1,0.4c-0.5,4.5-1.4,9-0.8,13.6C380.6,190.8,384.6,190.1,384.6,190.1z"/>
	<path class="st2_startup-2-73" d="M388,202.3c-1,0-1.9-0.3-2.7-0.8c-1.1-0.8-1.7-2-1.9-3.3l0.5-7.3c-1,0-2-0.3-2.8-0.8c-0.9-0.7-1.5-1.7-1.6-2.9&#10;&#9;&#9;c-0.4-3.6-0.2-7.3,0.4-10.9c0.1-1,0.2-1.9,0.4-2.9c0-0.2,0.1-0.5,0.2-0.7c0.2-0.3,0.5-0.5,0.8-0.6c1.4-0.7,2.6-1.8,3.3-3.2&#10;&#9;&#9;c0.1-0.2,0.1-0.3,0.2-0.5c0.1-0.8,0.9-1.3,1.7-1.1c0,0,0.1,0,0.1,0c0.5,0.1,0.9,0.3,1.3,0.7l0.4,0.3c3,1.8,6.3,2.9,9.7,3.3&#10;&#9;&#9;c0.2,0,0.3,0.1,0.4,0.2c0.1,0.1,0.2,0.3,0.1,0.5c-0.4,5-1.6,23.8-1.6,24c0,0.1,0,0.2,0,0.2c-1.4,2.9-4.1,5-7.2,5.6&#10;&#9;&#9;C389,202.2,388.5,202.3,388,202.3z M384.6,198.1c0.3,1.9,2,3.2,3.9,3c0.3,0,0.5-0.1,0.8-0.2c2.7-0.6,5-2.4,6.3-4.8&#10;&#9;&#9;c0.1-1.6,1.1-17.8,1.6-23.3c-3.4-0.5-6.6-1.7-9.6-3.4c-0.1-0.1-0.3-0.2-0.5-0.3c-0.2-0.2-0.5-0.3-0.8-0.4c-0.2,0-0.3,0-0.3,0&#10;&#9;&#9;c0,0.1-0.1,0.2-0.1,0.3c-0.1,0.2-0.2,0.4-0.3,0.6c-0.9,1.6-2.2,3-3.9,3.7c-0.1,0-0.2,0.1-0.2,0.1c0,0,0,0.1,0,0.1&#10;&#9;&#9;c-0.1,1-0.2,1.9-0.4,2.9c-0.6,3.5-0.8,7-0.4,10.5c0.1,0.8,0.5,1.5,1.1,2c0.8,0.5,1.7,0.7,2.7,0.6c0.2,0,0.4,0,0.5,0.1&#10;&#9;&#9;c0.1,0.1,0.2,0.3,0.2,0.5L384.6,198.1L384.6,198.1z"/>
	<path class="st2_startup-2-73" d="M384.4,194c2,0.2,3.9-0.4,5.4-1.7c1.2-1,2-2.6,2-4.2c-2.2,1.3-4.7,1.9-7.2,2L384.4,194z"/>
	<path class="st2_startup-2-73" d="M384.9,194.7c-0.2,0-0.4,0-0.6,0c-0.3,0-0.6-0.3-0.5-0.6l0.2-3.9c0-0.3,0.3-0.6,0.6-0.6&#10;&#9;&#9;c2.4-0.1,4.8-0.7,6.9-1.9c0.2-0.1,0.4-0.1,0.6,0c0.2,0.1,0.3,0.3,0.3,0.5c0,1.8-0.8,3.5-2.2,4.7&#10;&#9;&#9;C388.7,194.1,386.8,194.7,384.9,194.7z M385.2,190.8l-0.1,2.7c1.6,0,3.1-0.5,4.3-1.5c0.8-0.7,1.4-1.6,1.7-2.7&#10;&#9;&#9;C389.2,190.1,387.2,190.6,385.2,190.8L385.2,190.8z"/>
	<path class="st1_startup-2-73" d="M388.5,177.7c0,0-2.8,3.6-2.2,4.3s2.3,0.4,2.3,0.4"/>
	<path class="st2_startup-2-73" d="M387.6,183.1c-0.7,0.1-1.4-0.2-1.9-0.7c-0.2-0.3-0.9-1.1,2.2-5.1c0.2-0.3,0.6-0.3,0.9-0.1s0.3,0.6,0.1,0.9&#10;&#9;&#9;c-0.9,1.1-1.6,2.3-2.2,3.6c0.5,0.2,1.1,0.2,1.6,0.1c0.3-0.1,0.7,0.2,0.7,0.5c0,0,0,0,0,0c0.1,0.3-0.2,0.7-0.5,0.7&#10;&#9;&#9;C388.3,183.1,388,183.1,387.6,183.1z M386.8,181.8L386.8,181.8z"/>
	
		<ellipse transform="matrix(0.1023 -0.9948 0.9948 0.1023 170.4308 541.4297)" class="st2_startup-2-73" cx="385.2" cy="176.3" rx="0.8" ry="0.4"/>
	
		<ellipse transform="matrix(3.332968e-02 -0.9994 0.9994 3.332968e-02 203.0087 562.9557)" class="st2_startup-2-73" cx="392.5" cy="176.5" rx="0.8" ry="0.4"/>
	<path class="st1_startup-2-73" d="M396.1,179.6c0.9-1.1,2.4-3.2,4.1-2.4c0.5,0.2,0.8,0.6,1.1,1c1.3,1.8,1,3.9-0.1,5.7c-0.9,1.5-3.6,3.8-5.2,1.7"/>
	<path class="st2_startup-2-73" d="M397.6,187c-0.8,0-1.6-0.4-2.1-1.1c-0.3-0.2-0.3-0.7,0-0.9c0.2-0.3,0.7-0.3,0.9,0c0,0,0.1,0.1,0.1,0.1&#10;&#9;&#9;c0.3,0.4,0.7,0.6,1.2,0.6c1.2-0.3,2.3-1.1,2.9-2.2c0.5-0.9,1.6-3.1,0.1-5c-0.2-0.3-0.5-0.6-0.9-0.8c-1-0.5-2,0.7-3.1,2l-0.2,0.3&#10;&#9;&#9;c-0.2,0.3-0.6,0.3-0.9,0.1c0,0,0,0,0,0c-0.3-0.2-0.3-0.6-0.1-0.9l0.2-0.3c1-1.2,2.6-3.2,4.6-2.3c0.6,0.3,1,0.7,1.4,1.2&#10;&#9;&#9;c1.3,1.8,1.3,4.2-0.1,6.4c-0.6,1-2.2,2.7-4,2.8L397.6,187z"/>
	<path class="st2_startup-2-73" d="M387.8,186.9c-1.4-0.1-2.7-0.7-3.6-1.8c-0.2-0.3-0.2-0.6,0-0.9s0.6-0.2,0.9,0c0.7,0.9,1.8,1.4,2.9,1.4&#10;&#9;&#9;c2.1-0.1,3.9-2.3,3.9-2.4c0.2-0.3,0.6-0.3,0.9-0.1c0,0,0,0,0,0c0.3,0.2,0.3,0.6,0.1,0.9c-0.1,0.1-2.1,2.7-4.8,2.9L387.8,186.9z"/>
	<path class="st3_startup-2-73 targetColor" d="M409.3,199.3c0,0,14.1,9.4,21.1,30.9c3.4,10.5-3.5,38.5-3.5,38.5l-13-5.3c0,0,3.5-21.5,2.7-24.4&#10;&#9;&#9;s-18.5-22.7-18.5-22.7L409.3,199.3z" style="fill: rgb(0, 0, 0);"/>
	<path class="st1_startup-2-73" d="M337.2,202.2c0,0-11.9-11-13-10.7s-6.3,3.6-6.1,4.6s0.2,2,0.2,2s2.2-0.5,2.7-0.2c1,1.1,1.9,2.2,2.7,3.4&#10;&#9;&#9;c0.7,0.8-3,1.7-3,1.7c1.5,0.5,3,0.9,4.5,1.1c1.5,0.1,5.4,1.9,5.4,1.9L337.2,202.2z"/>
	<path class="st2_startup-2-73" d="M330.6,206.6c-0.1,0-0.2,0-0.3-0.1c-1.7-0.8-3.4-1.5-5.2-1.9c-1.6-0.2-3.1-0.6-4.6-1.1&#10;&#9;&#9;c-0.3-0.1-0.4-0.3-0.4-0.6c0-0.3,0.2-0.5,0.5-0.6c0.9-0.2,1.7-0.5,2.5-0.9l-0.2-0.3c-0.7-1-1.4-1.9-2.2-2.8c-0.7,0-1.5,0.2-2.2,0.3&#10;&#9;&#9;c-0.2,0-0.4,0-0.5-0.1c-0.1-0.1-0.2-0.3-0.2-0.5c0,0-0.1-1-0.2-1.9c-0.2-1.7,5.8-5.1,6.6-5.3c0.4-0.1,1.4-0.4,13.6,10.9&#10;&#9;&#9;c0.1,0.1,0.2,0.3,0.2,0.6c0,0.2-0.1,0.4-0.3,0.5l-6.7,3.8C330.8,206.6,330.7,206.6,330.6,206.6z M322.9,202.9&#10;&#9;&#9;c0.8,0.2,1.5,0.4,2.3,0.5c1.9,0.4,3.7,1,5.4,1.9l5.6-3.2c-5.1-4.7-10.8-9.5-11.9-9.9c-1.2,0.4-5.3,3.2-5.6,4&#10;&#9;&#9;c0.1,0.4,0.1,0.8,0.1,1.2c1.9-0.4,2.3-0.1,2.5,0c1,0.9,1.8,1.9,2.5,3.1l0.4,0.5c0.2,0.3,0.3,0.6,0.1,0.9&#10;&#9;&#9;C324,202.4,323.5,202.8,322.9,202.9z M323.2,201.7L323.2,201.7z"/>
	<path class="st3_startup-2-73 targetColor" d="M379,195.3c0,0-22.3,13.9-25.6,13.1s-18.4-9.2-18.4-9.2l-6.4,7.4c0,0,15.5,17.5,23,15.6s27.2-13.2,27.2-13.2&#10;&#9;&#9;L379,195.3z" style="fill: rgb(0, 0, 0);"/>
	<path class="st2_startup-2-73" d="M361.5,236.4h-0.2c-0.3-0.1-0.5-0.5-0.4-0.8c0,0,0,0,0,0c4.6-12.8,16-36.9,16.1-37.1c0.2-0.3,0.5-0.5,0.9-0.3&#10;&#9;&#9;c0.3,0.2,0.5,0.5,0.3,0.9c-0.1,0.2-11.5,24.2-16.1,37C362,236.3,361.8,236.4,361.5,236.4z"/>
	<path class="st1_startup-2-73" d="M416.6,239c0,0-12.9-17.1-18.5-22.7"/>
	<path class="st2_startup-2-73" d="M416.6,239.6c-0.2,0-0.4-0.1-0.5-0.2c-0.1-0.2-13-17.1-18.4-22.6c-0.3-0.2-0.3-0.6-0.1-0.9s0.6-0.3,0.9-0.1&#10;&#9;&#9;c0,0,0.1,0.1,0.1,0.1c5.5,5.5,18,22,18.5,22.7c0.2,0.3,0.1,0.7-0.2,0.9C416.9,239.6,416.7,239.6,416.6,239.6L416.6,239.6z"/>
</g>
<g id="Charging_point_startup-2-73">
	<path class="st1_startup-2-73" d="M224.4,326.7c0,0,18.4,2.5,24.9,1.7l1.1,14.6c0,0-20.1-0.3-25.1-2.8L224.4,326.7z"/>
	<path class="st0_startup-2-73" d="M250.4,343.7L250.4,343.7c-0.8,0-20.3-0.3-25.4-2.8c-0.2-0.1-0.4-0.4-0.4-0.6l-0.8-13.5c0-0.2,0.1-0.4,0.2-0.6&#10;&#9;&#9;c0.2-0.2,0.4-0.2,0.6-0.2c0.2,0,18.3,2.5,24.7,1.7c0.2,0,0.4,0,0.6,0.2c0.2,0.1,0.2,0.3,0.3,0.5l1.1,14.6c0,0.2-0.1,0.4-0.2,0.5&#10;&#9;&#9;C250.8,343.6,250.6,343.7,250.4,343.7z M226,339.7c4.8,2,20,2.4,23.6,2.5l-0.9-13c-6.2,0.5-19.9-1.2-23.5-1.6L226,339.7z"/>
	<path class="st2_startup-2-73" d="M203.3,394.1c-3.3,0.1-6.5-0.8-9.1-2.7c-3.4-2.5-5.5-6.9-6.2-12.9c-1.2-9.5-4.5-16.3-9.9-20.3&#10;&#9;&#9;c-4.2-3-9.3-4.4-14.4-3.8c-0.4,0.1-0.7-0.2-0.8-0.6c0,0,0,0,0,0c-0.1-0.4,0.2-0.7,0.6-0.8c5.5-0.6,11,0.8,15.5,4.1&#10;&#9;&#9;c5.7,4.3,9.2,11.4,10.4,21.3c0.7,5.6,2.6,9.6,5.7,11.9c4.6,3.4,10.9,2.4,14.3,1.8c0.6-0.1,1.2-0.2,1.6-0.2&#10;&#9;&#9;c12.4-1.4,14.9-25.9,17-45.6c0.5-4.7,1-9.1,1.5-12.9c0-0.4,0.4-0.7,0.7-0.7c0.4,0,0.7,0.4,0.7,0.7c0,0,0,0.1,0,0.1&#10;&#9;&#9;c-0.6,3.8-1,8.2-1.5,12.9c-2.1,20.2-4.8,45.4-18.2,46.9c-0.4,0-0.9,0.1-1.5,0.2C207.5,393.9,205.4,394.1,203.3,394.1z"/>
	<circle class="st3_startup-2-73 targetColor" cx="240.1" cy="335.4" r="3" style="fill: rgb(0, 0, 0);"/>
</g>
<g id="Chart_line_startup-2-73">
	<rect x="74.4" y="150.6" class="st1_startup-2-73" width="111.9" height="85.4"/>
	<path class="st0_startup-2-73" d="M186.3,236.7H74.4c-0.4,0-0.7-0.3-0.7-0.7l0,0v-85.4c0-0.4,0.3-0.7,0.7-0.7l0,0h111.9c0.4,0,0.7,0.3,0.7,0.7&#10;&#9;&#9;l0,0V236C187,236.4,186.7,236.7,186.3,236.7z M75.1,235.2h110.4v-83.9H75.1V235.2z"/>
	<path class="st0_startup-2-73" d="M172.6,221.3H90.9c-0.4,0-0.7-0.3-0.7-0.7l0,0v-58c0-0.4,0.3-0.7,0.7-0.7s0.7,0.3,0.7,0.7v57.3h81&#10;&#9;&#9;c0.4,0,0.7,0.3,0.7,0.7S173.1,221.3,172.6,221.3L172.6,221.3z"/>
	<path class="st0_startup-2-73" d="M90.9,221.3c-0.1,0-0.2,0-0.3-0.1c-0.4-0.2-0.5-0.6-0.3-1c0,0,0,0,0,0c0.5-0.9,11.7-22.8,22.8-19.1&#10;&#9;&#9;c2.9,1.1,5.5,2.7,7.7,4.8c4.3,3.6,6.9,5.8,16.6-3.2c7.4-6.9,11-15,13.8-21.6s5.2-11.9,10.2-13.7c0.4-0.1,0.8,0.1,0.9,0.4&#10;&#9;&#9;s-0.1,0.8-0.4,0.9c-4.4,1.5-6.6,6.5-9.3,12.9c-2.9,6.7-6.5,15-14.2,22c-10.1,9.4-13.6,7.3-18.5,3.2c-2.1-2-4.6-3.5-7.2-4.5&#10;&#9;&#9;c-9.8-3.3-20.9,18.2-21,18.4C91.5,221.1,91.2,221.3,90.9,221.3z"/>
</g>
<g id="Pie_Chart_startup-2-73">
	<rect x="160" y="247.5" class="st1_startup-2-73" width="55.6" height="39.7"/>
	<path class="st0_startup-2-73" d="M215.7,287.9H160c-0.4,0-0.7-0.3-0.7-0.7l0,0v-39.7c0-0.4,0.3-0.7,0.7-0.7l0,0h55.6c0.4,0,0.7,0.3,0.7,0.7l0,0&#10;&#9;&#9;v39.7C216.4,287.6,216,287.9,215.7,287.9z M160.8,286.5h54.2v-38.3h-54.2V286.5z"/>
	<path class="st0_startup-2-73" d="M180.4,280.6c-7.4,0-13.3-6-13.3-13.3c0-7.4,6-13.3,13.3-13.3c2.7,0,5.3,0.8,7.5,2.3c0.3,0.2,0.4,0.7,0.2,1&#10;&#9;&#9;l-6.4,9.2H193c0.4,0,0.7,0.3,0.7,0.7l0,0C193.7,274.7,187.8,280.6,180.4,280.6z M180.4,255.5c-6.6,0-11.9,5.3-11.9,11.9&#10;&#9;&#9;c0,6.6,5.3,11.9,11.9,11.9c6.3,0,11.5-4.9,11.9-11.2h-11.8c-0.3,0-0.5-0.1-0.6-0.4c-0.1-0.2-0.1-0.5,0-0.7l6.7-9.8&#10;&#9;&#9;C184.7,256,182.6,255.5,180.4,255.5L180.4,255.5z"/>
	<path class="st0_startup-2-73" d="M193,255.4l-6.6,8.6h11.1C197.5,264.1,197.7,258.4,193,255.4z"/>
	<path class="st0_startup-2-73" d="M210.1,271.1h-12.6c-0.4,0-0.7-0.3-0.7-0.7s0.3-0.7,0.7-0.7h12.6c0.4,0,0.7,0.3,0.7,0.7&#10;&#9;&#9;S210.5,271.1,210.1,271.1z"/>
	<path class="st0_startup-2-73" d="M205.8,276.2h-8.3c-0.4,0-0.7-0.3-0.7-0.7s0.3-0.7,0.7-0.7h8.3c0.4,0,0.7,0.3,0.7,0.7S206.2,276.2,205.8,276.2&#10;&#9;&#9;z"/>
</g>
</svg>